<svg width="114" height="64" viewBox="0 0 114 64" fill="none" xmlns="http://www.w3.org/2000/svg">
<path fill-rule="evenodd" clip-rule="evenodd" d="M37.7686 28.6267C37.6298 27.8504 37.3441 27.107 36.9264 26.4357C36.5419 25.793 35.9644 25.3637 35.2917 25.1262L34.3296 24.8408H33.8489C32.9352 24.8408 32.1179 25.3642 31.4924 26.3644C30.8428 27.3406 30.5304 28.5793 30.5304 29.9602L30.5304 31.5078C30.5304 33.1508 30.9148 34.5329 31.685 35.6751C32.4545 36.8426 33.3203 37.39 34.4017 37.39H34.7389L35.6525 37.1525C36.3736 36.9139 36.9034 36.4372 37.2642 35.7716C37.4562 35.4143 37.5761 35.0563 37.6965 34.6522C37.8885 33.8901 37.9848 33.056 38.009 32.2226V30.913C38.0084 30.1269 37.9363 29.3648 37.7686 28.6267ZM46.7609 25.2929C46.641 25.4128 46.5931 25.5309 46.5931 25.6508V31.2464L47.3142 31.2464L47.8434 31.199L48.3236 31.0797C48.5881 31.0084 48.8291 30.8417 49.0695 30.651C49.7191 30.0556 50.0309 29.2941 50.0794 28.3407V27.6739C50.0794 26.9832 49.839 26.3878 49.4061 25.8877C48.949 25.3637 48.3956 25.1256 47.7465 25.1256H47.1938C47.0254 25.1262 46.8813 25.1742 46.7609 25.2929ZM50.6085 24.4834C50.0794 24.3401 49.5502 24.2448 49.0458 24.2448L48.8297 24.2208L42.433 24.1734V24.8882L42.8654 24.9355C43.1784 24.9595 43.4672 25.0788 43.6591 25.3637C43.9479 25.6502 44.0678 26.007 44.0199 26.4357V35.7939C44.0199 36.1272 43.9479 36.4372 43.779 36.7227C43.587 37.08 43.2988 37.3192 42.938 37.342H42.3362V38.0574H48.2037V37.342C47.8434 37.39 47.482 37.342 47.1943 37.1525C46.905 36.9619 46.7609 36.7232 46.6652 36.3893C46.5931 36.1278 46.5447 35.8898 46.5931 35.6044V32.0793L47.5068 32.1512C47.8434 32.222 48.0844 32.4366 48.2043 32.7946C48.4757 33.595 48.8389 34.3619 49.2868 35.0803L50.1526 36.5571C50.5613 37.2233 51.1141 37.6754 51.8358 37.9141C52.543 38.1704 53.2969 38.2759 54.0481 38.2235H54.6015L54.6493 37.5801L53.9282 37.152L53.5189 36.7466C52.2049 35.0659 51.1139 33.2253 50.2725 31.2698C50.97 31.0317 51.5228 30.6504 52.0041 30.055C52.5327 29.4596 52.7736 28.7694 52.7972 27.9833V27.3873C52.7736 26.4352 52.4128 25.6731 51.7153 25.1256C51.3538 24.8408 50.9936 24.6027 50.6085 24.4834ZM60.1063 25.1976C60.4188 25.0069 60.7802 24.9355 61.1883 24.8882V24.2208L55.2494 24.2208V24.8882L55.8984 24.9595C56.1394 25.0069 56.3313 25.1262 56.4996 25.3169C56.7642 25.6029 56.8841 25.9597 56.8605 26.3884L56.8847 26.6744V35.557L56.8605 35.8424L56.6922 36.6285L56.6201 36.8431C56.2593 37.2713 55.7785 37.4385 55.2494 37.3426V38.0579H61.1883V37.3426C60.8286 37.3906 60.4672 37.3426 60.1305 37.1531C59.8666 36.9624 59.6971 36.7238 59.6256 36.3899C59.5299 36.1284 59.5057 35.8424 59.5299 35.557V26.1263C59.5784 25.8883 59.6498 25.6508 59.7697 25.4356L60.1063 25.1976ZM27.5249 31.1271C27.5249 30.2936 27.6448 29.4836 27.9093 28.6507C28.1976 27.936 28.5106 27.2692 28.9193 26.6738C29.3516 26.0784 29.8329 25.5543 30.4335 25.1742C31.0832 24.6495 31.8043 24.3401 32.598 24.126L34.329 23.8874H34.8103C36.5419 23.8874 37.9848 24.5308 39.2108 25.769C40.4132 27.0312 41.0145 28.5314 41.0145 30.3176V31.5078C41.0145 33.4134 40.4132 35.0563 39.1872 36.3665C37.9369 37.6754 36.4457 38.3428 34.6905 38.3428L34.4979 38.3907H33.729L33.5365 38.3428C31.8769 38.3428 30.4341 37.6754 29.2801 36.3665C28.1261 35.0563 27.5249 33.4134 27.5249 31.5078V31.1271ZM26.1535 24.8882C25.6728 24.8402 25.2399 24.9595 24.8791 25.2449C24.7571 25.3262 24.6536 25.4317 24.5751 25.5548C24.4966 25.6778 24.4449 25.8157 24.4231 25.9597V26.3878L24.3983 26.7212L24.3983 35.5324L24.4231 35.8418L24.5188 36.4372C24.5436 36.6279 24.6393 36.8426 24.8312 36.9858L25.1921 37.1993L26.1057 37.342V38.0574H19.95V37.342L20.6953 37.2713C21.0556 37.2233 21.2966 37.0806 21.4649 36.7952L21.7058 36.2711C21.7537 36.0816 21.7779 35.843 21.7537 35.6049L21.7537 31.3178L16.2228 31.3178L16.2228 35.485C16.1744 36.0091 16.247 36.4378 16.4874 36.7952L16.7036 37.0338C17.0638 37.3192 17.4495 37.438 17.906 37.342V38.0574H11.8466V37.342H12.2789L12.6882 37.2233C12.9764 37.1525 13.2167 36.9619 13.3609 36.6279C13.4813 36.3665 13.5776 36.1278 13.5292 35.8898L13.5776 35.6044L13.5776 26.6264L13.5298 26.3878C13.5782 25.9597 13.4099 25.6023 13.0969 25.3163C12.8807 25.1256 12.6888 25.0063 12.4478 24.9589L11.7745 24.8876V24.2202H17.8097V24.8876C17.4973 24.9349 17.1849 25.0063 16.8483 25.197L16.488 25.4824L16.3433 25.7924C16.2228 26.1258 16.175 26.4352 16.2228 26.7446V30.1737L21.7537 30.1737V26.6264C21.7779 26.079 21.6574 25.6029 21.2966 25.2455C21.1525 25.1268 20.9841 25.0075 20.7922 24.9601L20.0947 24.8887V24.2214H26.1541V24.8882H26.1535ZM73.5239 24.4834L65.8775 36.9139L67.1048 37.0806H69.4843L69.6768 37.0338C70.278 37.0806 70.8786 36.9619 71.4084 36.7472C71.6724 36.6285 71.9133 36.4858 72.1295 36.2471C72.3947 35.9617 72.6344 35.6049 72.8518 35.2476C73.0404 34.8975 73.1704 34.5194 73.2368 34.1281L73.9579 34.3428L73.2368 38.0579H62.5118L62.295 37.7006L70.0855 25.1987H66.5998C66.1433 25.1987 65.662 25.318 65.2285 25.5321C65.1086 25.5561 64.9887 25.604 64.9161 25.7228C64.7005 26.0088 64.508 26.3182 64.3875 26.6755L63.9782 27.795L63.377 27.7471L63.3055 27.557L63.354 27.3183V26.6755L63.377 26.4849L63.4739 25.128L63.4981 24.8899V24.2465L63.5453 24.0085V23.6511H63.9776L64.0745 23.7704C64.267 24.0085 64.5552 24.1278 64.8682 24.1752L73.3325 24.2231L73.5239 24.4834ZM81.0261 24.8408C80.5695 24.9361 80.1367 25.0788 79.7286 25.3169L79.2478 25.7216C78.6939 26.317 78.2858 26.9838 78.0932 27.8172C77.9007 28.5793 77.7324 29.3648 77.6851 30.1275V31.3897C77.6851 33.0566 78.0932 34.4855 78.8628 35.6523C79.6093 36.7958 80.5459 37.3912 81.6279 37.3912H81.8931C82.2974 37.3387 82.6932 37.2347 83.0707 37.0818C83.8172 36.7244 84.3452 36.153 84.6334 35.3189L84.8259 34.6995C85.0669 33.9374 85.1868 33.1519 85.1868 32.3419L85.2352 32.0804V31.0809L85.1868 30.7715C85.1868 30.0568 85.1141 29.3426 84.9458 28.6279C84.8259 27.8184 84.5377 27.1043 84.1048 26.4369C83.9041 26.0709 83.6147 25.76 83.2626 25.5321C82.7366 25.1753 82.1367 24.9395 81.5068 24.8419H81.0261V24.8408ZM89.2748 24.8882C89.8276 24.8882 90.3083 25.0788 90.7176 25.4356C91.1257 25.793 91.3188 26.2451 91.3188 26.7451L91.3661 27.0785L91.2704 34.6036L91.2462 34.8423C91.2462 35.3657 91.1977 35.8898 91.0779 36.3893L90.8853 36.9133C90.7654 37.08 90.6456 37.1987 90.43 37.2227C90.2375 37.3415 89.9977 37.3894 89.8046 37.3415H89.5636V38.0568H94.5653L94.5168 37.3415H94.2771C93.7963 37.3415 93.3634 37.1987 92.9541 36.9133L92.8343 36.7227C92.6361 36.113 92.5149 35.4814 92.4734 34.8423L92.5218 34.7224L92.4734 34.6516L92.4019 27.7933L100.409 38.2235L101.659 38.2235L101.731 27.4353C101.731 26.9118 101.827 26.3872 101.972 25.8877C102.02 25.6736 102.092 25.5303 102.212 25.4122C102.573 25.0548 102.982 24.8882 103.462 24.8882V24.1734L98.4608 24.2214V24.8408L99.1819 24.9595C99.4671 25.0143 99.7376 25.1279 99.9756 25.2929C100.168 25.4362 100.336 25.6508 100.385 25.9123C100.456 26.3644 100.505 26.8645 100.505 27.3879L100.577 33.7702L92.8101 24.2214L89.276 24.1734V24.8882H89.2748ZM88.1444 29.8415C88.0821 29.0322 87.8701 28.2412 87.519 27.5078C87.1581 26.7218 86.6296 26.0316 85.9563 25.4362C85.4407 24.9483 84.826 24.5749 84.1532 24.3407C83.4309 24.0547 82.7104 23.888 81.9893 23.888H81.5074L79.8484 24.1027C79.0906 24.2912 78.3735 24.614 77.7318 25.0554C77.159 25.4647 76.6489 25.9538 76.2175 26.5077C75.761 27.1031 75.448 27.7938 75.2082 28.508C74.9313 29.2167 74.7691 29.9642 74.7275 30.7229L74.6791 30.961V31.5564C74.7275 32.4612 74.8958 33.2952 75.1598 34.1281C75.448 34.9622 75.9293 35.7243 76.5299 36.367C77.0777 36.9555 77.7299 37.4394 78.4541 37.7947C79.1752 38.1041 79.9441 38.2948 80.6894 38.3434L80.9062 38.3913L81.6527 38.3913L81.8925 38.3434C82.7111 38.2914 83.5154 38.106 84.2731 37.7947C84.8986 37.5093 85.4992 37.1525 86.0277 36.6285C86.6774 36.0331 87.1581 35.3183 87.519 34.4855C87.8798 33.7474 88.0729 32.9379 88.1444 32.1038C88.2401 31.3527 88.2401 30.5926 88.1444 29.8415ZM106.179 43.7488C106.179 43.7009 106.155 43.6541 106.059 43.7009H105.794C105.193 44.2249 104.856 44.8923 104.832 45.7252V45.7731L104.785 45.9638L104.905 46.3919C105.457 46.0357 105.867 45.5579 106.059 44.9391L106.179 44.3676V43.7488ZM108.703 41.7485C108.68 42.6713 108.559 43.5891 108.343 44.487L107.911 46.5112L107.958 46.9633L107.982 47.0353L108.199 47.154C108.753 47.0821 109.185 46.7967 109.521 46.2732L109.545 46.2012V46.1533L109.401 46.1305L108.944 46.3919C109.16 44.7718 109.425 43.1055 109.786 41.4386V41.1999L109.762 41.1531L108.223 41.4386V41.724L108.703 41.7485ZM106.516 43.2722L107.308 43.3909L106.78 46.3919L107.308 46.0825L107.429 46.32C107.381 46.4387 107.26 46.5106 107.141 46.6066L106.996 46.7253L106.419 46.9867L105.987 47.1055L105.818 46.868L105.938 45.7246C105.698 46.1527 105.385 46.5106 105.025 46.844L104.905 46.9148C104.702 47.039 104.469 47.105 104.231 47.1055C104.164 47.0902 104.103 47.0581 104.052 47.0123C104.002 46.9664 103.964 46.9085 103.943 46.844L103.871 46.6305L103.823 46.3919V45.8918C103.871 45.3684 104.015 44.8443 104.303 44.4162C104.736 43.7728 105.337 43.3915 106.106 43.2727H106.516V43.2722ZM111.877 43.2722C112.238 43.2961 112.406 43.4628 112.406 43.8208L112.309 44.0582L112.285 44.1302L112.045 44.2249L111.444 43.8208L111.036 43.8915L110.963 44.1062C110.988 44.2957 111.083 44.4156 111.227 44.4864C111.677 44.7016 112.048 45.0518 112.285 45.4871C112.285 46.0106 112.118 46.3919 111.804 46.7253C111.589 46.9148 111.396 47.0347 111.108 47.0815C110.785 47.1487 110.449 47.1156 110.146 46.9867C109.953 46.868 109.833 46.7253 109.786 46.4381C109.882 46.2486 110.001 46.0819 110.194 46.01C110.482 46.2726 110.844 46.4861 111.227 46.5586L111.564 46.32C111.517 45.9638 111.349 45.7246 111.036 45.6058C110.626 45.4871 110.386 45.2005 110.313 44.7718V44.4864C110.482 43.8202 110.867 43.4149 111.564 43.2722H111.877ZM103.053 43.2722C103.341 43.2722 103.533 43.4149 103.63 43.7482L103.582 43.9389C103.51 44.1296 103.342 44.2483 103.149 44.2243C102.983 43.987 102.736 43.8177 102.453 43.7482C101.948 44.2483 101.707 44.8917 101.707 45.6058C101.707 45.7965 101.73 46.01 101.826 46.2012C101.899 46.3679 101.971 46.4387 102.091 46.4867H102.308L103.149 46.0357L103.293 46.1305V46.2012L102.981 46.5586C102.62 46.9148 102.187 47.1061 101.707 47.1061C101.49 47.1061 101.345 47.0821 101.178 46.9633C101.123 46.9439 101.072 46.9125 101.031 46.8715C100.989 46.8304 100.957 46.7807 100.937 46.7259C100.649 46.0825 100.649 45.4158 100.986 44.7256C101.345 43.9875 101.899 43.4634 102.693 43.2727H103.053V43.2722ZM100.096 43.3909V43.5336C100.096 43.891 100.047 44.2249 99.9744 44.5343L99.7347 45.6538L99.5663 46.3919L100.168 46.0825L100.263 46.2732C99.9036 46.7253 99.4222 47.0353 98.8458 47.154C98.7903 47.1345 98.7398 47.103 98.6981 47.0617C98.6564 47.0204 98.6245 46.9704 98.6049 46.9154V46.6779L99.0856 44.0103L98.7006 44.3437H98.5807L98.4123 44.1062C98.7759 43.7457 99.2094 43.462 99.6868 43.2722H99.9266L100.096 43.3909ZM100.215 41.5573C100.096 41.4386 99.9744 41.3678 99.8061 41.3678C99.662 41.3678 99.5421 41.4386 99.4222 41.5573C99.3024 41.6772 99.2539 41.7959 99.2539 41.9146C99.2539 42.0813 99.3024 42.2001 99.4222 42.3188C99.5421 42.4375 99.662 42.4615 99.8061 42.4615C99.9744 42.4615 100.096 42.4375 100.215 42.3188C100.335 42.2001 100.384 42.0813 100.384 41.9146C100.384 41.7965 100.335 41.6778 100.215 41.5573ZM95.3342 43.2722C94.9579 43.3959 94.6131 43.5991 94.3237 43.8676L94.0839 44.1062L94.1324 44.2489L94.2523 44.3437L94.733 44.0103L94.1318 47.1061L95.0927 46.9154C95.2137 46.2012 95.4063 45.5356 95.6951 44.9391C95.8149 44.6536 96.0075 44.463 96.2478 44.2489L96.6802 43.9395C96.7286 44.1302 96.7286 44.2957 96.6802 44.487L96.2478 46.6072V46.8446L96.2963 46.9633L96.3205 47.0353C96.4162 47.1061 96.4888 47.154 96.536 47.154C97.1373 47.0353 97.5708 46.7259 97.8832 46.2012L97.8105 46.1305H97.7391L97.2583 46.3919C97.4981 45.4391 97.6422 44.4864 97.6906 43.5108L97.4025 43.2722H97.1615C96.6994 43.4748 96.2826 43.7665 95.9354 44.1302L95.5758 44.4864L95.7199 43.891L95.6956 43.5816L95.5273 43.2722H95.3342ZM93.4101 43.3441C93.4343 43.7003 93.4343 44.1062 93.3144 44.4624C93.1219 45.0818 93.002 45.7246 92.9293 46.3919L93.4833 46.0825L93.556 46.2732C93.1951 46.7253 92.7138 47.0353 92.2088 47.154L91.9933 47.0821C91.8756 46.5662 91.9173 46.0271 92.1132 45.5351C92.2815 45.0578 92.3529 44.5343 92.4014 44.0103L91.9933 44.3437H91.8722L91.7523 44.1062C92.1245 43.7455 92.5656 43.4619 93.0498 43.2722H93.2908L93.4101 43.3441ZM93.5554 41.4853C93.4343 41.3678 93.3144 41.3198 93.1703 41.3198C93.0941 41.3169 93.0182 41.3301 92.9476 41.3587C92.877 41.3872 92.8133 41.4304 92.761 41.4853C92.7048 41.5417 92.6608 41.6088 92.6318 41.6827C92.6029 41.7565 92.5895 41.8355 92.5927 41.9146C92.5927 42.0334 92.6411 42.2001 92.761 42.3188C92.8821 42.4375 93.002 42.4615 93.1703 42.4615C93.3144 42.4615 93.4343 42.4375 93.5554 42.3188C93.651 42.2001 93.6753 42.0334 93.6753 41.9146C93.6753 41.7485 93.651 41.6052 93.5554 41.4853ZM89.9244 41.7246L90.4294 41.7485C90.4052 42.6773 90.2369 43.5821 90.0431 44.487C89.8276 45.2011 89.7077 45.9158 89.635 46.6779C89.5878 46.7967 89.6351 46.9154 89.7077 47.0353L89.9244 47.154C90.3227 47.0316 90.6911 46.8288 91.0064 46.5586L91.1505 46.4387L91.2462 46.2732H91.2704L91.1977 46.1305L90.6692 46.3919C90.7176 45.7246 90.7891 45.0578 90.9089 44.3437L91.4871 41.4386L91.5113 41.3198L91.4871 41.1999V41.1531L89.9244 41.4386V41.7246ZM88.1202 41.8673C88.3854 41.9152 88.6742 42.034 88.8655 42.2726C89.0823 42.558 89.1549 42.82 89.2021 43.1055L89.4431 43.0347L89.4661 42.4621V41.724L88.3854 41.5105H87.783C86.9408 41.5105 86.2203 41.8427 85.6191 42.4381C84.9936 43.0587 84.657 43.867 84.657 44.7718C84.657 45.4871 84.8737 46.0819 85.3066 46.5106L85.6191 46.7961C85.9073 46.9628 86.1961 47.0815 86.4612 47.1055C87.1581 47.2014 87.783 47.1055 88.481 46.9148L89.0823 45.5351L88.7941 45.4391C88.6742 45.7246 88.5047 45.9152 88.3133 46.1305C88.0009 46.4867 87.5922 46.6779 87.1115 46.7259C86.678 46.7499 86.3177 46.5592 86.0768 46.1305C85.8612 45.7252 85.7401 45.3204 85.7401 44.8923C85.7401 44.463 85.837 43.9875 85.9811 43.5114C86.1048 43.1018 86.3471 42.7372 86.678 42.4627C87.0194 42.1633 87.4343 41.958 87.881 41.8673H88.1202Z" fill="#130F49"/>
<path fill-rule="evenodd" clip-rule="evenodd" d="M64.0139 10.4279L61.8984 10.2612L59.6849 10.0945L57.4495 10.0226H52.8329L50.5963 10.0945L48.4324 10.2612L46.2679 10.4513L44.1276 10.6654L42.0594 10.9274L40.0396 11.2134L38.044 11.5228L36.0478 11.8808L31.2387 12.9283L28.4257 13.6424L25.66 14.3811L23.0148 15.2146L21.2595 15.8579L19.5279 16.5013L17.8454 17.1201L16.1616 17.8343L14.5269 18.549L12.9157 19.3111L11.3525 20.0732L9.78977 20.9066L8.29913 21.7635L6.78486 22.6443L5.34147 23.5491L3.9471 24.5493L2.57634 25.5488L1.90308 26.0489C3.54574 25.3307 5.21405 24.6715 6.90475 24.0726C8.65997 23.4058 10.4394 22.811 12.1952 22.239L14.9119 21.5009C17.1243 20.9055 19.3366 20.334 21.5247 19.9053C24.1457 19.3099 26.791 18.8338 29.4356 18.4291L32.5132 18.0004L34.5566 17.7629L36.6484 17.5243L38.813 17.2862L40.929 17.0956L43.0929 16.9289L45.3053 16.7622L47.4934 16.6908L49.7542 16.6195L52.0385 16.5721H54.3229L55.4285 16.5241C55.2366 16.2861 55.1161 16.0486 54.9962 15.786C54.8821 15.4453 54.8016 15.0945 54.7558 14.7385V14.3098C54.8763 13.405 55.2366 12.6902 55.8862 12.1188C56.5116 11.6187 57.2327 11.4041 58.0501 11.5708C58.5551 11.6421 59.0364 11.8562 59.4929 12.1662C59.9737 12.523 60.2867 13.047 60.4066 13.6658C60.5749 14.4759 60.4792 15.2614 60.214 16.0235C60.0941 16.2849 59.9258 16.4996 59.7345 16.6423L66.0094 17.0944L72.2384 17.8805C74.1855 18.1659 76.1581 18.5472 78.1295 19.0239C80.2449 19.5474 82.3616 20.1907 84.4056 20.9289C86.0477 21.5593 87.619 22.3573 89.0943 23.3099L89.7924 23.7866L89.8154 23.7152C89.4601 22.5351 88.8896 21.4294 88.1322 20.4528C87.1257 19.1019 85.8985 17.9269 84.5013 16.9762C83.0669 15.9797 81.5461 15.1111 79.9567 14.3805C78.0096 13.5231 75.9898 12.8084 73.9215 12.2135C72.0216 11.6889 70.0975 11.2608 68.1509 10.9748L66.1069 10.6648L64.0139 10.4279Z" fill="#130F49"/>
</svg>
