<svg width="114" height="64" viewBox="0 0 114 64" fill="none" xmlns="http://www.w3.org/2000/svg">
<path fill-rule="evenodd" clip-rule="evenodd" d="M52.4746 34.6144C50.9811 44.4352 42.6904 51.2438 32.8069 52.1094L52.4746 52.1094L52.4746 34.6144ZM9.53491 28.4469L9.53491 11.7532L27.344 11.7532C18.3843 13.0025 10.9482 19.1361 9.53491 28.4469ZM34.1966 11.7532L52.4705 11.7532L52.4705 29.0949C51.1204 19.9152 43.7103 13.0867 34.1966 11.7532Z" fill="#130F49"/>
<path fill-rule="evenodd" clip-rule="evenodd" d="M44.5106 19.506C50.9102 25.8502 47.4511 35.1095 41.1318 41.3765C33.0603 49.3741 23.3593 50.2444 17.5982 44.5307C11.1992 38.1848 13.9407 29.3946 21.095 22.3076C28.0498 15.4042 37.9533 13.0004 44.5106 19.506Z" fill="#130F49"/>
<path fill-rule="evenodd" clip-rule="evenodd" d="M65.2776 13.5732L64.7526 12.3654C64.6256 12.087 64.7744 11.9847 65.0432 11.9847H65.4873C65.792 11.9847 65.8611 12.1432 65.7489 12.4262L65.2776 13.5732ZM66.9732 18.4154L69.0816 12.9275C69.3952 12.1087 69.5428 11.9847 70.1819 11.9847V11.7852H68.0109V11.9847C68.7745 12.0051 68.9103 12.1432 68.7396 12.5771L66.8893 17.3995L65.518 14.1528L66.1859 12.5321C66.3543 12.135 66.5757 11.9847 67.2277 11.9847V11.7852H62.9265V11.9847C63.4846 11.9847 63.7976 12.0636 64.0096 12.5771L64.8577 14.6231L63.7262 17.3995L61.8162 12.6368C61.6361 12.2028 61.8286 11.9847 62.3223 11.9847H62.4966V11.7852H59.7822V11.9847H59.8425C60.5175 11.9847 60.7673 12.097 61.0827 12.8865L63.2614 18.4154H63.7769L65.0975 15.2027L66.47 18.4154L66.9732 18.4154ZM73.0556 18.2487H70.5067V18.054C71.1587 18.0212 71.2969 17.8569 71.2969 17.1597V12.7275C71.2969 12.1707 71.0961 12.0133 70.5067 11.9847V11.7852H73.0556V11.9847C72.3936 11.9847 72.165 12.1268 72.165 12.824V17.2311C72.165 17.8458 72.3298 18.054 73.0556 18.054V18.2487ZM78.6951 18.2487L74.0118 18.2487V18.054H74.3555C74.8398 18.054 75.0188 17.8961 75.0188 17.3679V12.762C75.0188 12.2116 74.8469 11.9852 74.1908 11.9852H74.0419V11.7858H77.1319V11.9852H76.7444C76.0617 11.9852 75.8875 12.0531 75.8875 12.7023V17.4925C75.8875 17.7709 76.0003 17.8768 76.3039 17.8768H77.8494C78.4654 17.8768 78.6532 17.637 79.3141 16.7327H79.4978L78.6951 18.2487ZM84.2608 18.2487H79.5739V18.054H79.9247C80.4067 18.054 80.5821 17.8961 80.5821 17.3679V12.762C80.5821 12.2116 80.4149 11.9852 79.7553 11.9852H79.6088V11.7858H82.6987V11.9852H82.3137C81.6298 11.9852 81.452 12.0531 81.452 12.7023V17.4925C81.452 17.7709 81.5707 17.8768 81.8707 17.8768H83.4139C84.0287 17.8768 84.2213 17.637 84.8786 16.7327H85.0699L84.2608 18.2487ZM87.841 18.2487H85.2985V18.054C85.9469 18.0212 86.0781 17.8569 86.0781 17.1597V12.7275C86.0781 12.1707 85.8808 12.0133 85.2985 11.9847V11.7852H87.841V11.9847C87.1825 11.9847 86.9515 12.1268 86.9515 12.824V17.2311C86.9515 17.8458 87.1175 18.054 87.841 18.054V18.2487ZM92.3489 14.9237H90.537L91.4276 12.5058L92.3489 14.9237ZM95.065 18.2487L97.1758 18.2487V18.054C96.7039 18.0312 96.3058 17.9177 96.3383 17.386L96.623 12.7076H96.6425L99.3172 18.2487H99.5535L102.16 12.7076H102.185L102.49 17.3673C102.535 17.9171 102.05 18.0534 101.56 18.0534V18.2482H104.253V18.0534C103.484 18.0534 103.401 18.0534 103.34 17.093L103.005 12.3871C102.981 12.0338 103.182 12.025 103.696 11.9841V11.7975H102.156L99.6432 17.0334L97.1149 11.7975L95.5322 11.7975V11.9841C96.1806 12.0256 96.2025 12.2104 96.1594 12.8942L95.9066 16.9357C95.8582 17.8563 95.7696 18.0388 95.0644 18.0493C94.5937 18.0388 94.3852 17.92 94.1844 17.3989L91.9928 11.6296H91.0791L91.1748 11.8572L89.266 17.0217C88.9306 17.9276 88.8148 18.0394 88.1345 18.054V18.2487L90.5535 18.2487V18.054H90.3911C89.8141 18.054 89.5413 17.9469 89.5413 17.6674C89.5413 17.5241 89.6741 17.2094 89.7503 17.0129L90.3592 15.3805H92.529L93.2306 17.2708C93.2755 17.3755 93.347 17.534 93.347 17.6984C93.347 17.9885 93.1243 18.0534 92.529 18.0534H92.2568V18.2482H95.065V18.2487ZM67.4061 26.4359C67.4061 27.9122 66.5893 29.4071 64.8802 29.4071C63.194 29.4071 61.8617 28.0367 61.8617 26.0914C61.8617 24.8456 62.5975 23.1413 64.4431 23.1413C66.1741 23.1407 67.4061 24.5035 67.4061 26.4359ZM68.3941 26.0908C68.3941 24.2216 66.695 22.8804 64.7113 22.8804C62.4806 22.8804 60.8784 24.3467 60.8784 26.4143C60.8784 28.3608 62.6076 29.6709 64.6628 29.6709C66.695 29.6709 68.3941 28.1947 68.3941 26.0908ZM69.3367 27.9227C69.557 28.8474 70.2893 29.3884 71.1073 29.3884C71.8077 29.3884 72.556 28.9807 72.556 28.1607C72.556 26.6658 69.1903 26.2107 69.1903 24.3877C69.1903 23.5273 69.9887 22.8798 71.0565 22.8798C71.9341 22.8798 72.1143 23.1401 72.4845 23.1401C72.5666 23.1401 72.608 23.1185 72.6688 23.0378H72.8395L73.0184 24.3602H72.8395C72.543 23.6086 71.8703 23.1278 71.1475 23.1278C70.4588 23.1278 69.9781 23.5273 69.9781 24.1081C69.9781 25.5843 73.3427 25.9785 73.3427 27.8899C73.3427 28.91 72.4278 29.6703 71.203 29.6703C70.623 29.6703 69.8913 29.3884 69.7436 29.3884C69.7019 29.3891 69.6609 29.3998 69.6242 29.4196C69.5875 29.4393 69.5561 29.4676 69.5328 29.5019H69.3598L69.1359 27.9221H69.3367V27.9227ZM78.6503 29.5025L73.9681 29.5025V29.3053H74.3165C74.7955 29.3053 74.9739 29.1521 74.9739 28.6205V24.0139C74.9739 23.4653 74.8067 23.2378 74.1447 23.2378H74.0006V23.0389H77.0905V23.2378H76.7007C76.0192 23.2378 75.8426 23.3045 75.8426 23.9525V28.7415C75.8426 29.024 75.9566 29.1287 76.2613 29.1287L77.801 29.1287C78.4229 29.1287 78.6095 28.8889 79.2704 27.9853H79.4582L78.6503 29.5025Z" fill="#130F49"/>
<path fill-rule="evenodd" clip-rule="evenodd" d="M84.1003 27.1611H83.8995C83.8162 26.4212 83.6166 26.3364 83.1831 26.3364H81.4125V28.5514C81.4125 29.0292 81.595 29.124 81.9824 29.124H83.5947C84.3283 29.124 84.5474 28.8426 84.8119 27.9524H84.9997L84.8326 29.4977H79.2669V29.3006H79.5575C80.3985 29.3006 80.5497 29.0731 80.5497 28.4502V24.0595C80.5497 23.4775 80.4068 23.2325 79.7075 23.2325H79.4754V23.0336H84.506L84.5905 24.4771H84.3979C84.2674 23.5927 84.0046 23.4067 83.6272 23.4067H81.4125V25.9639H83.2941C83.6715 25.9639 83.8446 25.7872 83.8995 25.1819H84.1003V27.1611ZM87.6036 23.1599C87.7962 23.1365 87.9243 23.1365 88.1263 23.1365C89.741 23.1365 90.1815 23.8852 90.1815 24.8543C90.1815 26.0984 89.4156 26.5873 88.2527 26.5873C88.0106 26.5873 87.8511 26.5984 87.6031 26.5657V23.1599H87.6036ZM87.6036 26.764C87.7696 26.7751 87.9048 26.7815 88.1387 26.7815C88.4192 26.7815 88.5899 26.7751 88.8515 26.764C89.0972 26.933 89.4675 27.2325 89.9288 27.6904L90.6174 28.3741C91.5517 29.3 92.0271 29.6948 93.8609 29.61V29.424C93.0536 29.376 92.4122 28.99 91.7974 28.3747L90.9635 27.5536C90.4733 27.0658 90.1585 26.7751 89.7705 26.4727C90.631 26.2247 91.1637 25.5714 91.1637 24.79C91.1637 23.7284 90.2949 22.9388 88.3549 22.9388C87.6769 22.9388 87.4631 22.9505 87.0331 22.9704C86.605 22.9921 85.9707 23.0336 85.7126 23.0336V23.2325H85.9465C86.5506 23.2325 86.7319 23.4173 86.7319 24.0595V28.4391C86.7319 29.1339 86.5105 29.3006 85.8933 29.3006H85.712V29.4977H88.6856V29.3006H88.4376C87.8505 29.3006 87.6025 29.1474 87.6025 28.5215V26.764H87.6036ZM62.4193 37.7176V39.6916C62.4193 40.3689 62.5545 40.6087 63.2567 40.6087H63.2916V40.8064H60.657V40.6087H60.7184C61.3391 40.6087 61.5488 40.4408 61.5488 39.8478V35.2793C61.5488 34.7353 61.3722 34.5803 60.7922 34.5376V34.3388H63.2916V34.5376C62.5439 34.5376 62.4193 34.7353 62.4193 35.5349V37.3433H66.528V35.2962C66.528 34.7458 66.349 34.5376 65.6953 34.5376H65.5016V34.3388H68.194V34.5376C67.5645 34.5593 67.3967 34.7453 67.3967 35.3886V39.7033C67.3967 40.4403 67.6064 40.6081 68.2354 40.6081H68.3417V40.8058H65.3781V40.6081H65.6953C66.3827 40.6081 66.528 40.3683 66.528 39.8291V37.717H62.4193V37.7176ZM73.6741 38.4669H73.478C73.3906 37.7276 73.1898 37.6422 72.7604 37.6422H70.9911V39.8571C70.9911 40.3332 71.1688 40.4274 71.5586 40.4274H73.1709C73.9068 40.4274 74.1212 40.1519 74.3846 39.2588H74.5724L74.4088 40.8064H68.8396V40.6087H69.136C69.9747 40.6087 70.1199 40.3812 70.1199 39.7565V35.3699C70.1199 34.7862 69.9829 34.5382 69.2801 34.5382H69.0528V34.3394H74.0786L74.1649 35.7846H73.9782C73.843 34.9038 73.5814 34.7166 73.1998 34.7166H70.9911V37.2708H72.8632C73.2459 37.2708 73.4213 37.0947 73.478 36.4917H73.6741V38.4669ZM78.9084 37.4784H77.0977L77.9883 35.0588L78.9084 37.4784ZM79.0862 37.9387L79.7896 39.8291C79.8286 39.9343 79.9036 40.087 79.9036 40.2508C79.9036 40.5432 79.6809 40.6081 79.0856 40.6081H78.8157V40.8058H81.6972V40.6081C81.1722 40.6081 80.9519 40.5052 80.7399 39.9536L78.5517 34.1826H77.6393L77.735 34.4113L75.8279 39.5746C75.4878 40.4853 75.3732 40.5958 74.6917 40.6087V40.8064H77.1154V40.6087H76.9495C76.3713 40.6087 76.0996 40.5058 76.0996 40.225C76.0996 40.0753 76.2355 39.7647 76.3087 39.5682L76.9176 37.9393H79.0862V37.9387ZM86.5317 40.8064H81.8484V40.6087H82.1945C82.6764 40.6087 82.8577 40.452 82.8577 39.9244V35.3149C82.8577 34.7646 82.6882 34.5382 82.0297 34.5382H81.882V34.3394H84.9743V34.5382H84.5846C83.903 34.5382 83.7241 34.6113 83.7241 35.2559V40.0455C83.7241 40.3262 83.8381 40.4268 84.144 40.4268H85.6872C86.3055 40.4268 86.4922 40.1952 87.1513 39.288H87.3438L86.5317 40.8064ZM90.1432 39.8478C90.1432 40.4098 90.3298 40.6087 90.9688 40.6087H91.3586V40.8064L88.0572 40.8064V40.6087L88.4423 40.6087C89.0872 40.6087 89.275 40.4098 89.275 39.8478V34.7166H87.4477C87.0278 34.7166 86.8377 34.9529 86.6841 35.8682H86.4916L86.6611 34.1832H86.8642C86.8681 34.2128 86.881 34.2406 86.9011 34.2628C86.9213 34.285 86.9477 34.3007 86.977 34.3078C87.0441 34.3312 87.115 34.3421 87.1861 34.3399L92.2303 34.3399C92.372 34.3399 92.5327 34.3078 92.5545 34.1832H92.7553L92.9213 35.8682H92.7311C92.5752 34.9535 92.3874 34.7166 91.9687 34.7166L90.1426 34.7166V39.8478H90.1432ZM95.0562 37.7176V39.6916C95.0562 40.3689 95.1956 40.6087 95.8961 40.6087H95.9285V40.8064H93.2963V40.6087H93.3607C93.9802 40.6087 94.1887 40.4408 94.1887 39.8478V35.2793C94.1887 34.7353 94.0109 34.5803 93.4286 34.5376V34.3388H95.928V34.5376C95.1862 34.5376 95.0557 34.7353 95.0557 35.5349V37.3433H99.1655V35.2962C99.1655 34.7458 98.989 34.5376 98.3399 34.5376H98.1356V34.3388H100.832V34.5376C100.205 34.5593 100.035 34.7453 100.035 35.3886V39.7033C100.035 40.4403 100.247 40.6081 100.872 40.6081H100.979V40.8058H98.0104V40.6081H98.3405C99.0197 40.6081 99.1661 40.3683 99.1661 39.8291V37.717H95.0562V37.7176ZM67.1038 47.3495C66.7577 46.3844 65.8583 45.7527 64.7137 45.7527C62.9615 45.7527 61.8748 47.0091 61.8748 48.7573C61.8748 50.6377 63.2384 52.0174 64.8312 52.0174C65.6551 52.0174 66.6756 51.7372 67.3861 50.4774H67.5869C67.4487 50.9447 67.1694 51.591 66.9119 51.9969C66.2427 51.9034 65.7815 52.2788 64.5472 52.2788C62.4187 52.2788 60.8885 50.8862 60.8885 48.9649C60.8885 46.9465 62.4618 45.4919 64.6499 45.4919C65.9752 45.4919 66.5357 45.9042 66.8635 45.9042C66.9763 45.9042 67.0306 45.8779 67.0513 45.8492H67.2095L67.304 47.3489H67.1038V47.3495ZM72.849 49.775H72.6506C72.5644 49.0368 72.3671 48.955 71.9342 48.955H70.1636V51.1664C70.1636 51.6437 70.3426 51.7378 70.7277 51.7378H72.3423C73.0805 51.7378 73.2997 51.4577 73.5595 50.5634H73.7497L73.5814 52.1122H68.0145V51.918H68.3074C69.1496 51.918 69.2961 51.684 69.2961 51.0623L69.2961 46.6792C69.2961 46.092 69.1579 45.8498 68.4586 45.8498H68.2265V45.6475H73.2548L73.3392 47.0939H73.1538C73.0156 46.2107 72.7522 46.0212 72.3754 46.0212H70.1642L70.1642 48.5801H72.0423C72.4173 48.5801 72.5992 48.4017 72.6512 47.7986H72.8496V49.775H72.849ZM81.22 52.1829L75.7872 46.5499L75.7872 51.0108C75.7872 51.7565 75.9555 51.918 76.8473 51.918V52.1122H74.4147V51.918H74.4572C75.108 51.918 75.3189 51.6963 75.3189 51.2167L75.3189 46.1037C75.0767 45.9381 74.8056 45.8557 74.4401 45.8498V45.6475H76.0825L81.0216 50.7494L81.0216 46.6143C81.0216 45.9814 80.8326 45.8709 79.9951 45.8498V45.6475H82.4449V45.8498C81.6559 45.8498 81.4923 45.9814 81.4923 46.3844L81.4923 52.1829H81.22ZM86.3923 51.157C86.3923 51.7191 86.5766 51.918 87.2168 51.918H87.6031V52.1122H84.3005V51.918H84.6903C85.3258 51.918 85.5159 51.7191 85.5159 51.157L85.5159 46.0212H83.6922C83.2723 46.0212 83.0821 46.2598 82.9274 47.1752H82.7372L82.9091 45.4925H83.104C83.1122 45.5574 83.1595 45.5954 83.2203 45.6147C83.2859 45.6363 83.3585 45.648 83.43 45.648L88.4706 45.648C88.6206 45.648 88.7742 45.6147 88.796 45.4925H88.9957L89.1628 47.1752H88.975C88.8167 46.2604 88.6277 46.0212 88.2102 46.0212L86.3912 46.0212L86.3912 51.157H86.3923ZM96.9384 51.87C97.4676 51.8595 97.5639 51.5776 97.5639 51.0588V46.6815C97.5639 46.1025 97.4269 45.8533 96.7252 45.8533H96.4943V45.6521H101.519L101.599 47.0962H101.412C101.276 46.213 101.015 46.0294 100.636 46.0294H98.435V48.5801H100.304C100.681 48.5801 100.858 48.4052 100.908 47.7998H101.114V49.775H100.908C100.826 49.0368 100.63 48.955 100.201 48.955H98.435V51.1629C98.435 51.6413 98.6092 51.7308 98.9943 51.7308H100.609C101.338 51.7308 101.559 51.4501 101.82 50.5599H102.009L101.841 52.1057H97.656C95.8275 52.1894 95.3568 51.9115 94.4225 50.9863L93.7292 50.3055C93.2703 49.8463 92.9053 49.5457 92.6567 49.3813C92.3927 49.3872 92.2273 49.4018 91.9415 49.4018C91.7153 49.4018 91.5759 49.3872 91.41 49.3813L91.41 51.1325C91.41 51.7548 91.6627 51.9115 92.2486 51.9115H92.4896V52.1057H89.5284V51.9115H89.7049C90.3221 51.9115 90.5389 51.7448 90.5389 51.0488L90.5389 46.6815C90.5389 46.037 90.3635 45.8533 89.7546 45.8533H89.5284V45.6521C89.7776 45.6521 90.4178 45.6124 90.8465 45.5948C91.2857 45.5657 91.7258 45.5536 92.1659 45.5586C94.0971 45.5586 94.9629 46.3522 94.9629 47.4044C94.9629 48.1835 94.4355 48.8356 93.5762 49.0883C93.966 49.3866 94.2767 49.6779 94.7698 50.1692L95.5955 50.9857C96.0171 51.398 96.424 51.8209 96.9384 51.87ZM91.41 49.1807C91.6627 49.2106 91.8204 49.2024 92.0584 49.2024C93.2201 49.2024 93.9873 48.7157 93.9873 47.4694C93.9873 46.5055 93.5467 45.7557 91.935 45.7557C91.7342 45.7557 91.5995 45.7557 91.41 45.7808V49.1807Z" fill="#130F49"/>
</svg>
