<svg width="114" height="64" viewBox="0 0 114 64" fill="none" xmlns="http://www.w3.org/2000/svg">
<path fill-rule="evenodd" clip-rule="evenodd" d="M25.5478 27.0913C25.5478 22.448 22.1844 19.1171 18.0054 19.1171C16.5786 19.1171 15.1511 19.42 13.9286 20.4295C12.8077 19.5212 11.3803 19.1171 9.9534 19.1171C5.57066 19.1171 2.00293 22.8521 2.00293 27.5967C2.00293 35.9745 10.1571 42.8393 13.9286 44.7571V39.6084C18.6167 37.9935 25.5478 32.5424 25.5478 27.0913ZM13.928 34.8638L13.928 39.5072C10.87 36.984 6.691 32.2395 6.691 27.7979C6.691 25.4759 8.32161 23.5581 10.4625 23.5581C12.0937 23.5581 13.4184 24.5676 13.928 25.9812C14.4377 24.5676 15.8646 23.5581 17.3936 23.5581C19.4323 23.5581 20.9613 25.2741 20.9613 27.2931C20.9607 30.7252 16.0683 33.8549 13.928 34.8638ZM110.047 34.9656V34.2585H110.453C110.759 34.2585 110.963 34.2585 110.963 34.5615C110.963 34.8644 110.759 34.9656 110.453 34.9656H110.047ZM110.047 35.268H110.352L110.964 36.2769H111.473L110.759 35.268C111.167 35.1662 111.372 35.0656 111.372 34.5609C111.372 34.1579 111.066 33.9555 110.556 33.9555H109.639V36.2769L110.046 36.2769V35.268H110.047ZM112.493 35.0662C112.493 33.7537 111.575 32.946 110.454 32.946C109.333 32.946 108.314 33.7537 108.314 35.0662C108.314 36.2769 109.231 37.1864 110.454 37.1864C111.575 37.1864 112.493 36.2769 112.493 35.0662ZM112.085 35.0662C112.085 36.0763 111.372 36.7823 110.453 36.7823C109.435 36.7823 108.823 35.9745 108.823 35.0662C108.823 34.0561 109.536 33.3502 110.453 33.3502C111.372 33.3502 112.085 34.0561 112.085 35.0662ZM54.0879 30.3216C54.0879 30.9276 53.9857 30.9276 53.8841 30.9276C53.2723 30.9276 53.4766 29.1109 51.7433 29.1109C51.132 29.1109 50.4186 29.4139 50.4186 30.1204C50.4186 31.8365 54.5976 31.5341 54.5976 34.6638C54.496 37.0858 52.2535 37.49 51.132 37.49C50.1127 37.49 48.7874 37.187 48.7874 36.4799C48.7874 35.4698 48.7874 34.7638 49.0933 34.7638C49.5008 34.7638 49.3992 36.7823 51.3358 36.7823C52.2535 36.7823 52.967 36.3793 52.967 35.5715C52.967 33.3507 48.8901 33.6537 48.8901 31.2311C48.8901 29.1109 50.6229 28.5056 52.1514 28.5056C53.0685 28.5056 54.0879 29.0103 54.0879 29.1115V30.3216ZM33.9058 30.1193C33.9058 30.5234 34.008 30.624 34.6192 30.624C36.352 30.624 36.6579 30.3211 36.8617 29.9175C37.0654 29.3121 37.0654 28.908 37.3714 28.908C37.5751 28.908 37.6773 29.0092 37.6773 31.23C37.6773 32.7442 37.5757 33.1478 37.3714 33.0472C37.1676 33.0472 37.0654 32.7442 36.9638 32.3401C36.8623 31.9365 36.6579 31.23 35.0273 31.23C34.008 31.23 33.9064 31.3306 33.9064 31.9365V35.1662C34.0086 36.2763 34.2123 36.3781 35.2317 36.5805C35.7413 36.6811 35.9451 36.7817 35.9451 36.9835C35.9451 37.1852 35.6392 37.2864 35.2317 37.2864H30.6452C30.4408 37.2864 30.3392 37.1858 30.3392 36.8834C30.3392 36.6811 30.543 36.5805 31.3586 36.5805C31.6645 36.5805 31.8683 36.4787 31.8683 35.7727L31.8683 26.8896C31.8683 26.183 31.7667 26.0818 31.2564 25.9812C30.543 25.9812 30.543 25.8801 30.543 25.6783C30.543 25.3753 30.7467 25.2747 31.2564 25.2747H37.8816C38.4935 25.2747 38.6972 25.2747 38.6972 26.183C38.6972 28.202 38.6972 28.202 38.3913 28.202C38.1875 28.202 38.1875 27.4955 37.8816 27.0913C37.4741 26.0818 35.7407 25.9812 35.1295 25.9812C34.1101 26.0818 33.9064 26.0818 33.9064 27.2931V30.1193H33.9058ZM57.5534 34.6626C57.5534 35.8733 57.8594 36.0757 58.675 36.0757C59.0819 36.0757 59.5921 35.8733 59.6937 35.8733C59.7965 35.8733 59.8981 35.9739 59.8981 36.1763C59.8981 36.6811 58.8781 37.4888 57.6556 37.4888C56.5347 37.4888 55.7191 36.8834 55.7191 35.268V30.1193C55.7191 29.9175 55.7191 29.8163 55.5153 29.8163C54.9041 29.8163 54.7003 29.8163 54.7003 29.5133C54.7003 29.2104 55.5153 29.0092 56.1278 28.4032C56.8412 27.6967 57.1471 26.889 57.4525 26.889C57.8605 26.889 57.3509 28.605 57.9621 28.605H59.4918C59.8987 28.605 60.0002 28.7062 60.0002 29.1098C60.0002 29.6145 59.6943 29.6145 59.5933 29.6145H58.0637C57.4513 29.6145 57.5534 29.9175 57.5534 30.5234V34.6626ZM47.1568 28.6056C45.8315 28.6056 45.5262 29.5139 45.2202 29.5139C44.8127 29.5139 45.3224 28.3026 44.8127 28.3026C44.609 28.3026 44.5068 28.7062 43.6912 29.211C43.08 29.6145 42.5703 29.8169 42.5703 30.1193C42.4681 30.7252 43.2837 30.1193 43.2837 31.5329C43.2837 31.5329 43.4875 36.1763 43.1821 36.2769C42.8762 36.3787 42.6725 36.7817 42.1622 36.7817C41.6531 36.7817 41.3472 36.4787 41.3472 36.4787C41.1434 36.1757 41.2456 35.9739 41.2456 35.4686L41.2456 30.0181V28.4032C41.2456 28.302 41.1434 28.302 41.0418 28.302C40.9397 28.302 40.6337 28.8068 40.0225 29.2104C38.9016 29.7151 38.3919 29.5133 38.3919 29.9169C38.3919 30.7246 39.4112 30.0181 39.4112 31.2294L39.4112 35.7722C39.4112 36.1751 39.3097 36.3775 39.1053 36.5799C39.1053 36.5799 38.9016 36.6805 38.6978 36.6805C38.2903 36.7811 38.086 36.8828 38.086 37.0835C38.086 37.1852 38.1881 37.2858 38.3919 37.2858L46.6477 37.2858C46.9536 37.2858 47.0552 37.2858 47.0552 36.9829C47.1568 36.5799 46.2402 36.5799 46.2402 36.5799C45.3224 36.5799 45.1187 36.0751 45.1187 35.368V31.6335C45.1187 30.7252 45.3224 30.2205 45.7305 30.2205C46.2402 30.2205 46.5461 31.1288 47.3611 31.1288C48.2783 31.1288 48.482 30.3211 48.482 30.0187C48.4815 29.211 47.8702 28.6056 47.1568 28.6056ZM95.2671 34.6626C95.2671 35.8733 95.674 36.0757 96.388 36.0757C96.8977 36.0757 97.3052 35.8733 97.408 35.8733C97.5095 35.8733 97.6111 35.9739 97.6111 36.1763C97.6111 36.6811 96.6939 37.4888 95.3687 37.4888C94.2477 37.4888 93.4321 36.8834 93.4321 35.268L93.5349 30.1193C93.5349 29.9175 93.4321 29.8163 93.3306 29.8163C92.7193 29.8163 92.4134 29.8163 92.4134 29.5133C92.4134 29.2104 93.3306 29.0092 93.9418 28.4032C94.5531 27.6967 94.8602 26.889 95.1655 26.889C95.674 26.889 95.0627 28.605 95.7768 28.605H97.3052C97.7133 28.605 97.8149 28.7062 97.8149 29.1098C97.7133 29.6145 97.5089 29.6145 97.408 29.6145H95.8783C95.2671 29.6145 95.2671 29.9175 95.2671 30.5234V34.6626ZM101.077 29.8169L101.179 29.9175C101.282 29.9175 102.3 28.7062 103.727 28.7062C105.256 28.7062 106.479 29.4127 106.479 31.7347V35.8733C106.479 36.2763 106.683 36.3781 106.988 36.5805C107.498 36.7817 107.498 36.7817 107.498 36.9835C107.498 37.1852 107.294 37.2864 106.887 37.2864C106.683 37.2864 104.44 37.1858 104.032 37.1858C103.726 37.1858 103.421 37.1858 103.421 36.9835C103.421 36.6805 103.93 36.6805 104.236 36.4787C104.542 36.3781 104.644 35.8733 104.644 34.965V31.7347C104.644 31.5329 104.848 30.0187 102.809 30.0187C102.3 30.0187 101.077 30.4222 101.077 31.5329V36.0757C101.077 36.3787 101.178 36.4787 101.383 36.4787C101.689 36.6811 101.892 36.6811 102.097 36.7817C102.3 36.7817 102.504 36.8834 102.504 36.984C102.504 37.1864 102.198 37.287 101.892 37.287C101.484 37.287 98.9358 37.1864 98.3245 37.287C98.1202 37.287 98.0186 37.0846 98.0186 36.884C98.1202 36.6817 98.5283 36.6817 98.7315 36.581C99.2411 36.2769 99.2411 36.0763 99.2411 35.0662V26.6878C99.1396 26.0818 98.324 26.2842 98.324 25.8801C98.324 25.5771 100.465 24.6688 100.771 24.6688C101.077 24.77 101.077 25.1735 101.077 25.5777V29.8169H101.077ZM91.8021 36.4793C91.1897 36.2769 91.0881 36.1763 91.0881 35.7733V25.1735C91.0881 24.8705 91.0881 24.6688 90.8838 24.6688C90.7822 24.6688 90.0682 25.1735 89.7628 25.2747C89.1516 25.5777 88.336 25.6783 88.336 26.0824C88.336 26.3854 88.7441 26.486 88.9472 26.6884C89.2531 26.8901 89.2532 27.0919 89.2532 28.505V34.6632C89.2532 35.5715 89.1516 35.8739 88.9472 36.0763C88.8456 36.2775 88.7441 36.2775 88.5403 36.3793C88.2344 36.4799 88.0306 36.4799 87.7247 36.3793C87.4188 36.2775 87.0107 35.8745 87.0107 34.8644V34.3597V30.3222C87.0107 29.2121 86.5022 28.5056 84.7682 28.5056C82.5258 28.405 80.8946 30.5246 80.8946 31.13C80.8946 31.4329 80.9974 31.6347 81.4043 31.7359C82.0155 31.7359 82.628 31.2311 82.7295 30.5246C82.9339 29.5145 83.5451 29.3133 84.1564 29.2121C85.0736 29.2121 85.3789 29.9187 85.3789 30.9282C85.3789 31.4329 85.3789 31.6347 84.972 31.8365C83.7495 32.6442 81.1999 33.2496 81.0983 35.6727C80.9968 37.2882 82.0155 37.5906 82.5252 37.49C83.952 37.49 85.1758 36.3799 85.1758 36.3799C85.3789 36.4804 85.9913 37.2882 86.9085 37.2882H89.9666C90.6806 37.2882 92.3106 37.3888 92.6159 37.1876C92.8203 37.0858 92.5144 36.6828 92.6159 36.7834C92.515 36.6811 92.515 36.6811 91.8021 36.4793ZM83.5451 36.2769C83.0355 36.1763 82.7295 35.7733 82.7295 35.1668C82.7295 33.5525 84.7677 32.6436 84.972 32.6436C85.2779 32.543 85.2779 32.846 85.2779 33.6537C85.3795 35.571 84.972 36.4793 83.5451 36.2769ZM77.328 29.1104C78.449 29.1104 78.6521 30.0187 78.6521 30.3216C78.6521 31.4318 78.3462 31.7353 75.9012 31.6341C75.4931 31.6341 75.2887 31.6341 75.2887 31.3312C75.2887 30.5234 76.1043 29.1104 77.328 29.1104ZM80.0802 32.4418C80.3861 32.4418 80.3861 32.2395 80.3861 32.0377C80.3861 30.7252 79.5705 28.5044 77.1243 28.5044C75.2893 28.4038 73.2506 30.4222 73.2506 33.1478C73.2506 35.571 74.8818 37.4888 76.9199 37.4888C79.1624 37.4888 80.1817 35.7727 80.1817 35.4692C80.1817 35.268 80.1817 35.1662 79.9774 35.1662C79.5705 35.268 78.8565 36.1763 77.6334 36.0757C76.5124 36.0757 75.1866 34.9656 75.1866 33.1478C75.1866 32.2395 75.6963 32.4418 75.9006 32.4418H80.0802Z" fill="#130F49"/>
<path fill-rule="evenodd" clip-rule="evenodd" d="M69.2885 37.2834C69.0842 37.2834 68.8804 37.1828 68.8804 36.9804C68.8804 36.778 69.1864 36.6774 69.7988 36.5774C70.1047 36.4757 70.3073 36.1733 70.3073 35.4662V32.4388C70.3073 32.0347 70.3073 31.5299 69.7988 31.5299H66.4342C66.1283 31.5299 65.823 31.5299 65.823 32.1353V35.4662C65.823 36.1733 66.1289 36.4762 66.3326 36.5774C67.0467 36.678 67.2498 36.7786 67.2498 36.9804C67.2498 37.1822 67.1482 37.2834 66.9439 37.2834H62.7649C62.5617 37.2834 62.459 37.1828 62.459 36.9804C62.459 36.8798 62.6633 36.778 63.3762 36.5774C63.6833 36.4757 63.9886 36.3751 63.9886 35.7697V26.8865C63.9886 26.3818 63.8858 25.9782 63.3762 25.9782C62.8677 25.9782 62.5617 25.877 62.5617 25.5746C62.5617 25.3723 62.8677 25.2717 63.0702 25.2717H66.638C66.8423 25.2717 67.1476 25.2717 67.1476 25.6752C67.1476 25.877 66.9433 25.9782 66.4336 25.9782C65.9251 26.0788 65.8224 26.2812 65.8224 26.7853V30.1162C65.8224 30.4192 65.8224 30.7222 66.2305 30.7222H69.8998C70.3067 30.7222 70.3067 30.4192 70.3067 30.1162V26.4824C70.3067 26.0788 69.8998 25.9782 69.6954 25.9782C69.2885 25.9782 68.9826 25.877 68.9826 25.6752C68.9826 25.3723 69.2885 25.2717 69.5939 25.2717H73.0588C73.4669 25.2717 73.5685 25.3723 73.5685 25.5746C73.5685 26.0794 72.9572 25.9782 72.5486 26.0794C72.447 26.18 72.2426 26.2812 72.2426 26.9877V35.4667C72.2426 36.1739 72.3454 36.4768 72.9567 36.578C73.3636 36.6786 73.5679 36.6786 73.5679 36.981C73.5679 37.1834 73.4663 37.284 73.161 37.284L69.2885 37.2834Z" fill="#130F49"/>
</svg>
