<svg width="114" height="64" viewBox="0 0 114 64" fill="none" xmlns="http://www.w3.org/2000/svg">
<path fill-rule="evenodd" clip-rule="evenodd" d="M5.68005 28.4329C6.21099 28.4165 6.64271 28.4001 6.95867 28.4001C8.15402 28.4001 9.13321 28.4329 9.89684 28.4329C12.9685 28.4329 14.5619 27.2818 14.5619 25.2926C14.5619 23.5994 13.2171 22.3665 10.9097 22.2015C12.6029 21.7904 13.5325 20.7715 13.5325 19.5549C13.5325 17.8781 12.1216 16.9241 9.39897 16.9241C8.68495 16.9241 7.85518 16.9733 6.90847 16.9733C6.56003 16.9733 6.14484 16.9733 5.68005 16.9399V17.3511C7.00828 17.4166 7.14116 17.5815 7.14116 18.4688L7.14116 26.7057C7.14116 27.7579 6.99174 28.0211 5.68005 28.0211V28.4329ZM8.75169 22.0208L8.75169 17.4505C8.95072 17.4342 9.15034 17.4342 9.33283 17.4342C11.0762 17.4342 11.8729 18.0916 11.8729 19.6374C11.8729 21.199 10.9599 22.0378 9.23361 22.0378C9.0836 22.0372 8.91765 22.0372 8.75169 22.0208ZM8.75169 25.8354L8.75169 22.5308C8.98438 22.5144 9.19995 22.5144 9.4161 22.5144C11.7406 22.5144 12.8693 23.435 12.8693 25.3915C12.8693 26.904 11.8233 27.8907 10.1467 27.8907C8.83496 27.8907 8.75228 27.3976 8.75228 26.2957V25.8354H8.75169ZM15.857 28.4329C16.6041 28.4165 17.3512 28.4001 18.0977 28.4001C18.9109 28.4001 20.9863 28.4165 24.3396 28.5013C24.5558 27.414 24.8209 26.5589 25.053 25.9834L24.655 25.8681C23.9906 27.6275 23.1773 27.9065 21.2349 27.9065C19.3421 27.9065 18.9104 27.7585 18.9104 26.2624V22.8262H20.4376C21.9814 22.8262 22.5129 22.9578 22.5129 24.3059V24.4375H22.9447C22.8785 23.6479 22.8283 22.9086 22.8283 22.2343C22.8283 21.8231 22.862 21.33 22.9281 20.7218H22.4799C22.4633 21.7904 22.0647 22.1027 21.0518 22.1027H18.9104V17.4991H20.6538C22.6293 17.4991 23.4762 17.926 23.5589 19.4719H23.9073V16.9236C22.9281 16.9399 21.3341 16.9727 19.0934 16.9727C17.9808 16.9727 16.9018 16.9563 15.8564 16.9393V17.3505C17.1179 17.416 17.3004 17.581 17.3004 18.4682L17.3004 26.7051C17.3004 27.7573 17.0849 28.0205 15.8564 28.0205V28.4329H15.857ZM28.4737 28.4329C29.5031 28.4001 30.2667 28.3837 30.7481 28.3837C31.5454 28.3837 32.3751 28.3837 33.2386 28.4329V28.0053H33.0224C31.6776 28.0053 31.6611 27.545 31.6611 25.95L31.6611 17.6313H33.4707C34.9979 17.6313 35.5289 17.6974 35.5289 18.9303V19.0455H35.944L36.0769 16.5135H35.7285C35.6954 16.8586 34.9648 16.9739 33.5374 16.9739H27.8601C26.9636 16.9739 26.4486 16.9575 26.2 16.5299L25.8515 16.5135L25.6684 19.1443L26.0836 19.1607C26.2661 17.8289 26.8638 17.6155 28.358 17.6155H30.0683L30.0683 26.7069C30.0683 27.7427 29.8693 28.0223 28.6905 28.0223H28.4749V28.4329H28.4737ZM39.5466 28.4329C40.576 28.4001 41.3396 28.3837 41.821 28.3837C42.6182 28.3837 43.448 28.3837 44.3115 28.4329V28.0053H44.0953C42.7505 28.0053 42.734 27.545 42.734 25.95V17.6313H44.5436C46.0708 17.6313 46.6017 17.6974 46.6017 18.9303V19.0455H47.0169L47.1498 16.5135H46.8014C46.7683 16.8586 46.0377 16.9739 44.6103 16.9739H38.933C38.0365 16.9739 37.5215 16.9575 37.2729 16.5299L36.9244 16.5135L36.7413 19.1443L37.1565 19.1607C37.339 17.8289 37.9367 17.6155 39.4309 17.6155H41.1406V26.7069C41.1406 27.7427 40.9416 28.0223 39.7628 28.0223H39.5472V28.4329H39.5466Z" fill="#130F49"/>
<path fill-rule="evenodd" clip-rule="evenodd" d="M50.3349 28.4C51.3312 28.3672 52.161 28.3508 52.8419 28.3508C53.5554 28.3508 54.3031 28.3672 55.0667 28.4V27.9724H54.8505C53.4892 27.9724 53.4892 27.4957 53.4892 25.8183V22.5465L56.2455 18.8143C56.8597 17.9756 57.2749 17.4007 57.9718 17.3346V16.8907C57.5731 16.9398 57.0422 16.9398 56.3784 16.9398C55.7305 16.9398 55.183 16.9234 54.7017 16.9064V17.3012C55.5651 17.3012 55.9136 17.4001 55.9136 17.844C55.9136 18.0908 55.7305 18.3868 55.4323 18.7974L53.1248 21.9043L50.6515 18.5008C50.4028 18.1721 50.2363 17.9417 50.2363 17.7282C50.2363 17.4323 50.5517 17.317 51.1989 17.3007V16.9228C50.4353 16.9556 49.6221 16.972 48.7917 16.972C48.0281 16.972 47.3778 16.9556 46.8628 16.9392V17.3504H46.9125C47.7452 17.3504 48.1769 17.7118 48.7084 18.4353L51.8793 22.7921V26.6061C51.8793 27.6583 51.8462 27.987 50.518 27.987H50.3349V28.4ZM65.9069 25.8189V22.8102L68.0814 22.8102C69.1108 22.8102 69.5095 23.1881 69.5095 24.2075V24.4046H69.9406C69.8744 23.6648 69.8248 22.9249 69.8248 22.2014C69.8248 21.7575 69.8579 21.2451 69.9246 20.6666H69.4758C69.4598 21.7247 69.0777 22.0698 68.0318 22.0698L65.9069 22.0698V17.4498H67.1353C69.4427 17.4498 70.4556 17.6802 70.5548 19.4285H70.9038V16.8754C69.3429 16.9082 67.8824 16.941 66.4874 16.941C65.0263 16.941 63.815 16.9246 62.8524 16.8918V17.303C64.0808 17.3521 64.2964 17.5334 64.2964 18.4236V26.674C64.2964 27.7262 64.0967 27.9894 62.8683 27.9894V28.4005C63.6703 28.3673 64.4729 28.3509 65.2755 28.3514C66.0226 28.3514 66.7195 28.3678 67.3337 28.4005V27.973H67.2676C65.973 27.973 65.9063 27.5782 65.9063 26.2792V25.8189H65.9069ZM78.673 28.6C80.665 28.6 82.2419 27.7917 83.3711 26.23C84.1347 25.1615 84.5334 23.9449 84.5334 22.6459C84.5334 20.9854 83.8855 19.5057 82.6571 18.3382C81.4783 17.2199 80.1666 16.7105 78.507 16.7105C76.8965 16.7105 75.5021 17.3024 74.4066 18.4365C73.3116 19.5548 72.7134 21.034 72.7134 22.6289C72.7134 24.3058 73.3778 25.868 74.5897 27.0027C75.7012 28.0549 77.0796 28.6 78.673 28.6ZM74.4893 22.3166C74.4893 19.2588 76.1659 17.2854 78.308 17.2854C79.7691 17.2854 81.1133 18.1569 81.9265 19.7186C82.4581 20.738 82.7403 21.889 82.7403 23.122C82.7403 26.0154 81.0796 28.0209 78.9057 28.0209C77.5609 28.0209 76.5646 27.446 75.7012 26.2125C74.9216 25.1117 74.4893 23.7472 74.4893 22.3166ZM89.1151 22.3008V17.4673C89.398 17.4346 89.6632 17.4182 89.9124 17.4182C91.8549 17.4182 92.8506 18.2727 92.8506 19.9174C92.8506 21.4135 91.7722 22.3997 89.8794 22.3997C89.6214 22.3998 89.3644 22.3666 89.1151 22.3008ZM86.0772 28.4C86.8846 28.3667 87.6927 28.3503 88.5009 28.3508C89.248 28.3508 89.9284 28.3672 90.5432 28.4V27.9724H90.4764C89.1323 27.9724 89.0986 27.5449 89.0986 26.0323V22.9085C89.398 22.9413 89.763 22.9576 90.1941 22.9576H90.6424C92.3197 25.8019 93.5481 27.594 94.3613 28.383C94.8757 28.3502 95.3576 28.3502 95.7887 28.3502C96.1703 28.3502 96.5524 28.3502 96.9841 28.3666V27.9554H96.9339C95.722 27.9554 94.3779 26.0979 92.1862 22.6453C93.6969 22.0698 94.4936 21.0503 94.4936 19.7683C94.4936 17.861 92.9002 16.8912 89.7624 16.8912C88.9651 16.8912 88.1684 16.9404 87.3552 16.9404C86.94 16.9404 86.5254 16.924 86.0772 16.907V17.3182C87.3387 17.3837 87.5046 17.5486 87.5046 18.4359V26.6728C87.5046 27.725 87.3056 27.9882 86.0772 27.9882V28.4ZM100.587 25.7036V17.4837C100.869 17.4673 101.135 17.4504 101.4 17.4504C104.969 17.4504 107.045 19.5057 107.045 22.8102C107.045 25.868 105.236 27.8081 102.263 27.8081C100.736 27.8081 100.587 27.2162 100.587 25.7036ZM97.5818 27.9894V28.4005C98.4452 28.3678 99.2088 28.3514 99.8727 28.3514C100.421 28.3514 101.035 28.4005 101.715 28.4005C106.281 28.4005 108.821 26.1154 108.821 22.5968C108.821 20.9199 108.09 19.4402 106.745 18.3552C105.351 17.2375 103.674 16.9415 101.433 16.9415C100.603 16.9415 99.7894 16.9743 98.9596 16.9743C98.4783 16.9743 98.03 16.9579 97.5818 16.9082V17.3194C98.8439 17.3849 99.0092 17.5498 99.0092 18.4371V26.674C99.0092 27.7256 98.8102 27.9894 97.5818 27.9894ZM46.7914 36.8386L46.5806 36.7912C46.3697 37.7972 45.6504 38.3669 44.6245 38.3669C43.6465 38.3669 42.8221 37.8253 42.2947 36.8386C42.0009 36.2922 41.8493 35.6819 41.8535 35.0629C41.8535 34.1037 42.2368 33.2779 42.9366 32.7088C43.3678 32.3573 43.9241 32.1678 44.5667 32.1678C45.7077 32.1678 46.3207 32.6427 46.5705 33.6867H46.7619C46.7471 33.2394 46.7152 32.7928 46.6662 32.3479C45.9185 32.035 45.1998 31.873 44.4899 31.873C43.464 31.873 42.6201 32.1771 41.9586 32.7942C41.2204 33.4773 40.8371 34.3511 40.8371 35.3191C40.8371 36.2783 41.2399 37.2182 41.8919 37.8165C42.5344 38.4143 43.3778 38.7202 44.3942 38.7202C45.1519 38.7202 45.8707 38.557 46.58 38.2154L46.7914 36.8386ZM47.5007 38.6137C48.0854 38.595 48.7279 38.5763 49.4083 38.5763C49.8016 38.5763 50.7985 38.5857 52.4279 38.605L52.7829 37.1521L52.5626 37.1047C52.2655 38.178 51.7186 38.2628 50.4914 38.2628C49.5329 38.2628 49.3026 38.0446 49.3026 37.2375V33.2217C49.3026 32.462 49.3315 32.2432 50.1365 32.2151V31.9771C49.9829 31.987 49.6191 32.0057 49.0533 32.0057C48.5643 32.0057 48.0659 31.9958 47.5479 31.9771V32.2145C48.2767 32.252 48.3824 32.3473 48.3824 32.8603V37.3983C48.3824 38.1488 48.373 38.3763 47.5958 38.3763H47.5001V38.6137H47.5007ZM53.253 38.6137C53.7193 38.5945 54.186 38.585 54.6527 38.5851C55.0838 38.5851 55.4771 38.595 55.8321 38.6137V38.3669H55.7937C55.0171 38.3669 54.9982 38.1201 54.9982 37.2463V33.2211C54.9982 32.4614 55.0265 32.2426 55.8321 32.2145V31.9771C55.4009 32.0057 54.9787 32.0057 54.5476 32.0057C54.078 32.0057 53.6463 31.9958 53.2536 31.9771V32.2145C53.9824 32.252 54.078 32.3473 54.078 32.8603V37.6171C54.078 38.2248 53.9629 38.3763 53.2536 38.3763V38.6137H53.253ZM56.3878 38.6137C56.7839 38.5961 57.1802 38.5865 57.5767 38.5851C57.9411 38.5851 58.4011 38.595 58.9386 38.6137V38.3669C57.8649 38.3669 57.7692 37.9873 57.7692 36.8164V33.2322L62.7449 38.7202H62.9551V33.6879C62.9551 32.5947 62.974 32.2526 63.8658 32.2052V31.9677C63.5109 31.9777 63.0898 31.987 62.6102 31.987C62.1596 31.987 61.7663 31.9771 61.4409 31.9677V32.2239H61.5365C62.4094 32.2239 62.5429 32.6322 62.5429 33.7826V37.1118L57.8749 31.9864C57.5194 32.0052 57.2513 32.0052 57.0505 32.0052C56.9158 32.0052 56.6382 32.0052 56.2355 31.9952V32.242C57.0794 32.2707 57.3475 32.5368 57.3475 33.2597V36.8053C57.3475 37.9388 57.3475 38.3751 56.4179 38.3751H56.389V38.6137H56.3878ZM64.3064 38.6137C64.7727 38.5945 65.2394 38.585 65.7061 38.5851C66.1372 38.5851 66.5305 38.595 66.8849 38.6137V38.3669H66.8471C66.0711 38.3669 66.051 38.1201 66.051 37.2463V33.2211C66.051 32.4614 66.0799 32.2426 66.8849 32.2145V31.9771C66.4538 32.0057 66.0321 32.0057 65.6004 32.0057C65.1309 32.0057 64.6997 31.9958 64.3064 31.9771V32.2145C65.0346 32.252 65.1309 32.3473 65.1309 32.8603V37.6171C65.1309 38.2248 65.0157 38.3763 64.3064 38.3763V38.6137ZM73.692 36.8386L73.4817 36.7912C73.2709 37.7972 72.5516 38.3669 71.5257 38.3669C70.5477 38.3669 69.7232 37.8253 69.1959 36.8386C68.9023 36.2922 68.7509 35.6819 68.7553 35.0629C68.7553 34.1037 69.1386 33.2779 69.8384 32.7088C70.2695 32.3573 70.8259 32.1678 71.4684 32.1678C72.6094 32.1678 73.2231 32.6427 73.4723 33.6867H73.6636C73.6492 33.2394 73.6173 32.7928 73.568 32.3479C72.8203 32.035 72.1015 31.873 71.3917 31.873C70.3658 31.873 69.5225 32.1771 68.861 32.7942C68.1228 33.4773 67.7395 34.3511 67.7395 35.3191C67.7395 36.2783 68.1423 37.2182 68.7937 37.8165C69.4362 38.4143 70.2802 38.7202 71.296 38.7202C72.0531 38.7202 72.7724 38.557 73.4817 38.2154L73.692 36.8386ZM6.09412 45.9587C6.21755 45.9546 6.31795 45.9505 6.39118 45.9505C6.66935 45.9505 6.89672 45.9587 7.0739 45.9587C7.78792 45.9587 8.15821 45.6914 8.15821 45.2287C8.15821 44.8351 7.84579 44.5485 7.30954 44.5099C7.70346 44.4146 7.91903 44.1777 7.91903 43.8952C7.91903 43.5051 7.59125 43.2834 6.95873 43.2834C6.79278 43.2834 6.59966 43.2951 6.37996 43.2951C6.29905 43.2951 6.20278 43.2951 6.09471 43.2875V43.3829C6.40358 43.3981 6.43429 43.4367 6.43429 43.6425L6.43429 45.5563C6.43429 45.8013 6.39945 45.8616 6.09471 45.8616V45.9587H6.09412ZM6.80813 44.4684V43.4063C6.8542 43.4022 6.90086 43.4022 6.94338 43.4022C7.34852 43.4022 7.53396 43.5554 7.53396 43.9145C7.53396 44.2771 7.32194 44.4725 6.92035 44.4725C6.88491 44.4725 6.84652 44.4725 6.80813 44.4684ZM6.80813 45.3551L6.80813 44.5871C6.86188 44.5836 6.91208 44.5836 6.96228 44.5836C7.50266 44.5836 7.76488 44.7971 7.76488 45.2521C7.76488 45.6042 7.52156 45.8329 7.13178 45.8329C6.82703 45.8329 6.80813 45.7183 6.80813 45.4621V45.3551ZM15.2122 45.9587C15.3858 45.9546 15.5594 45.9505 15.7331 45.9505C15.9221 45.9505 16.4046 45.9546 17.1841 45.9745C17.2214 45.7747 17.2769 45.5788 17.3501 45.389L17.2574 45.3621C17.1032 45.7709 16.9136 45.8364 16.4624 45.8364C16.0225 45.8364 15.9221 45.8019 15.9221 45.4545V44.6561H16.277C16.6355 44.6561 16.7595 44.6866 16.7595 45.0001V45.0305H16.8593C16.8435 44.8603 16.8346 44.6896 16.8327 44.5187C16.8327 44.4228 16.8404 44.3087 16.8558 44.1666H16.7512C16.7477 44.4152 16.655 44.4877 16.4193 44.4877H15.9215V43.4179H16.3266C16.7855 43.4179 16.9827 43.5174 17.0016 43.8765H17.0826V43.284C16.8552 43.2881 16.4849 43.2957 15.9634 43.2957C15.7047 43.2957 15.4543 43.2916 15.211 43.2881V43.3834C15.5045 43.3986 15.5464 43.4373 15.5464 43.6431V45.5569C15.5464 45.8019 15.4962 45.8622 15.211 45.8622V45.9587H15.2122ZM25.6502 46.0049L26.487 43.9174C26.6223 43.5817 26.6725 43.3946 26.8999 43.3946V43.291C26.7918 43.2992 26.6914 43.2992 26.5951 43.2992C26.3329 43.2992 26.1634 43.2992 26.0896 43.291V43.3946C26.3057 43.4022 26.3866 43.4367 26.3866 43.5659C26.3866 43.608 26.3595 43.7531 26.2709 43.9818L25.6921 45.4662L24.9976 43.6654C24.9749 43.613 24.9592 43.558 24.9509 43.5016C24.9509 43.4215 25.0324 43.3986 25.2132 43.391V43.2916C25.0549 43.3033 24.9125 43.3033 24.7885 43.3033C24.5883 43.3033 24.3911 43.3033 24.1908 43.2957V43.3875C24.4802 43.3992 24.5346 43.5472 24.6497 43.8414L25.5061 46.0049H25.6502ZM33.7926 45.9587C33.9662 45.9546 34.1399 45.9505 34.3135 45.9505C34.5025 45.9505 34.985 45.9546 35.7646 45.9745C35.8018 45.7747 35.8574 45.5788 35.9305 45.389L35.8378 45.3621C35.6837 45.7709 35.4947 45.8364 35.0429 45.8364C34.6029 45.8364 34.5025 45.8019 34.5025 45.4545V44.6561H34.8574C35.2159 44.6561 35.3393 44.6866 35.3393 45.0001V45.0305H35.4397C35.4237 44.8603 35.4147 44.6896 35.4126 44.5187C35.4126 44.4228 35.4202 44.3087 35.4356 44.1666H35.3317C35.3275 44.4152 35.2348 44.4877 34.9998 44.4877H34.5019V43.4179H34.907C35.3659 43.4179 35.5626 43.5174 35.5821 43.8765H35.663V43.284C35.435 43.2881 35.0647 43.2957 34.5438 43.2957C34.2851 43.2957 34.0347 43.2916 33.7914 43.2881V43.3834C34.0849 43.3986 34.1269 43.4373 34.1269 43.6431V45.5569C34.1269 45.8019 34.0767 45.8622 33.7914 45.8622V45.9587H33.7926ZM43.6323 44.5409V43.4174C43.6937 43.4099 43.7554 43.406 43.8172 43.4057C44.2684 43.4057 44.4999 43.6045 44.4999 43.9865C44.4999 44.3345 44.2495 44.5631 43.8095 44.5631C43.7497 44.5643 43.69 44.5569 43.6323 44.5409ZM42.926 45.9587C43.1073 45.9505 43.2963 45.947 43.4894 45.947C43.6631 45.947 43.8213 45.9505 43.9643 45.9587V45.8592H43.9489C43.6365 45.8592 43.6288 45.7598 43.6288 45.4083V44.683C43.6979 44.6907 43.7829 44.6947 43.8833 44.6947H43.9873C44.3771 45.3557 44.6623 45.7721 44.8513 45.9552C44.9712 45.9476 45.0828 45.9476 45.1832 45.9476C45.2718 45.9476 45.3604 45.9476 45.4608 45.9511V45.8557H45.449C45.1673 45.8557 44.8549 45.4241 44.3458 44.6216C44.6972 44.4877 44.882 44.2514 44.882 43.9531C44.882 43.5098 44.5117 43.284 43.7824 43.284C43.5969 43.284 43.4121 43.2957 43.2231 43.2957C43.1262 43.2957 43.0299 43.2916 42.926 43.2881V43.3834C43.2195 43.3986 43.2579 43.4373 43.2579 43.6431V45.5569C43.2579 45.8019 43.2118 45.8622 42.926 45.8622V45.9587ZM52.3069 45.9587C52.5419 45.9505 52.8006 45.9435 53.0746 45.9435C53.2329 45.9435 53.6339 45.9476 54.2901 45.9552L54.433 45.3709L54.3444 45.3516C54.2251 45.7832 54.0048 45.8177 53.5111 45.8177C53.1254 45.8177 53.0327 45.73 53.0327 45.4054V43.7888C53.0327 43.4835 53.0445 43.3951 53.3682 43.384V43.2887C53.3067 43.2922 53.1597 43.3004 52.9323 43.3004C52.7356 43.3004 52.5348 43.2963 52.3264 43.2887V43.384C52.6199 43.3992 52.6624 43.4378 52.6624 43.6437V45.4703C52.6624 45.7721 52.6583 45.8633 52.3458 45.8633H52.3075V45.9587H52.3069ZM61.5678 45.9587C61.7994 45.9505 61.9919 45.947 62.1502 45.947C62.3155 45.947 62.4898 45.9505 62.6669 45.9587V45.8592H62.6167C62.3008 45.8592 62.3008 45.7487 62.3008 45.3592V44.5982L62.941 43.7314C63.0839 43.5367 63.1801 43.4027 63.3426 43.3875V43.284C63.2498 43.2957 63.1264 43.2957 62.9723 43.2957C62.8217 43.2957 62.6941 43.2916 62.5825 43.2881V43.3794C62.7833 43.3794 62.8642 43.4022 62.8642 43.5057C62.8642 43.563 62.8223 43.632 62.7526 43.7274L62.2163 44.4491L61.6417 43.6583C61.5838 43.5817 61.5448 43.5279 61.5448 43.4782C61.5448 43.4098 61.6186 43.3829 61.7686 43.3788V43.291C61.4332 43.3054 61.0973 43.3067 60.7617 43.2951V43.3905H60.7735C60.9666 43.3905 61.067 43.4753 61.1905 43.6431L61.9275 44.6556V45.5417C61.9275 45.7867 61.9198 45.8628 61.611 45.8628H61.569V45.9587H61.5678ZM71.2535 45.9587C71.4348 45.9505 71.6238 45.947 71.8169 45.947C71.9905 45.947 72.1488 45.9505 72.2917 45.9587V45.8592H72.2764C71.9639 45.8592 71.9563 45.7598 71.9563 45.4083V44.6673H73.4989V45.5569C73.4989 45.7978 73.441 45.8622 73.1941 45.8622H73.1711V45.9581C73.5144 45.9426 73.8583 45.9426 74.2017 45.9581V45.8622C73.9194 45.8587 73.8733 45.7861 73.8733 45.5534V43.7496C73.8733 43.4782 73.8816 43.3981 74.2017 43.3829V43.2875C73.9353 43.2951 73.7658 43.2992 73.6843 43.2992C73.4959 43.2992 73.3223 43.2951 73.1717 43.2875V43.3829C73.4876 43.4057 73.4995 43.4174 73.4995 43.6425V44.4906H71.9568V43.7876C71.9568 43.4823 71.9687 43.394 72.2923 43.3829V43.2875C72.1535 43.2951 71.9799 43.2992 71.7749 43.2992C71.5936 43.2992 71.42 43.2992 71.2541 43.2875V43.3829C71.547 43.3981 71.586 43.4367 71.586 43.6425V45.5563C71.586 45.8013 71.5399 45.8616 71.2541 45.8616V45.9587H71.2535ZM81.2438 45.9587C81.4251 45.9505 81.6141 45.947 81.8066 45.947C81.9809 45.947 82.1385 45.9505 82.2815 45.9587V45.8592H82.2667C81.9543 45.8592 81.946 45.7598 81.946 45.4083V43.7882C81.946 43.4829 81.9578 43.3946 82.2815 43.3834V43.2881C82.1078 43.2998 81.9383 43.2998 81.7647 43.2998C81.5757 43.2998 81.4021 43.2957 81.2438 43.2881V43.3834C81.5367 43.3986 81.5757 43.4373 81.5757 43.6431V45.5569C81.5757 45.8019 81.5297 45.8622 81.2438 45.8622V45.9587ZM89.274 45.9587C89.5097 45.9505 89.7683 45.9435 90.0424 45.9435C90.2006 45.9435 90.6016 45.9476 91.2578 45.9552L91.4001 45.3709L91.3121 45.3516C91.1922 45.7832 90.9725 45.8177 90.4782 45.8177C90.0932 45.8177 89.9998 45.73 89.9998 45.4054V43.7888C89.9998 43.4835 90.0117 43.3951 90.3353 43.384V43.2887C90.2739 43.2922 90.1268 43.3004 89.8994 43.3004C89.7028 43.3004 89.502 43.2963 89.2941 43.2887V43.384C89.587 43.3992 89.6295 43.4378 89.6295 43.6437V45.4703C89.6295 45.7721 89.6254 45.8633 89.313 45.8633H89.2746V45.9587H89.274ZM98.3153 45.9587C98.5503 45.9505 98.809 45.9435 99.083 45.9435C99.2413 45.9435 99.6423 45.9476 100.298 45.9552L100.441 45.3709L100.353 45.3516C100.233 45.7832 100.013 45.8177 99.5195 45.8177C99.1338 45.8177 99.0405 45.73 99.0405 45.4054V43.7888C99.0405 43.4835 99.0523 43.3951 99.376 43.384V43.2887C99.3146 43.2922 99.1675 43.3004 98.9401 43.3004C98.7435 43.3004 98.5427 43.2963 98.3348 43.2887V43.384C98.6283 43.3992 98.6702 43.4378 98.6702 43.6437V45.4703C98.6702 45.7721 98.6661 45.8633 98.3537 45.8633H98.3159V45.9587H98.3153ZM107.46 45.8668C107.626 45.9587 107.823 46.0049 108.035 46.0049C108.571 46.0049 108.93 45.668 108.93 45.21C108.93 45.0153 108.861 44.8427 108.73 44.7129C108.591 44.5754 108.428 44.5064 108.278 44.4263C107.954 44.2543 107.776 44.1175 107.776 43.804C107.776 43.5554 107.969 43.3682 108.232 43.3682C108.487 43.3682 108.672 43.5215 108.714 43.7771H108.802L108.744 43.2957C108.591 43.2645 108.434 43.2467 108.277 43.2425C107.776 43.2425 107.459 43.5367 107.459 43.9835C107.459 44.3467 107.648 44.5222 108.015 44.7363C108.354 44.9351 108.586 45.0346 108.586 45.3557C108.586 45.6575 108.37 45.8598 108.061 45.8598C107.799 45.8598 107.579 45.6651 107.475 45.3019H107.382L107.46 45.8668ZM47.281 51.0992L47.2255 51.0869C47.1694 51.3525 46.9798 51.5033 46.7087 51.5033C46.45 51.5033 46.2327 51.3601 46.0933 51.0998C46.0158 50.9552 45.9758 50.7938 45.977 50.6301C45.977 50.3769 46.078 50.1587 46.2628 50.009C46.3768 49.916 46.5239 49.8657 46.6934 49.8657C46.9945 49.8657 47.157 49.9914 47.2225 50.2675H47.2733C47.2694 50.1495 47.2609 50.0316 47.2479 49.9142C47.0668 49.8341 46.8711 49.7913 46.6727 49.7885C46.4022 49.7885 46.179 49.8692 46.0041 50.0318C45.8092 50.2125 45.7083 50.443 45.7083 50.6991C45.7083 50.953 45.8146 51.201 45.987 51.3589C46.1571 51.5174 46.3798 51.5975 46.6485 51.5975C46.8481 51.5975 47.0383 51.5548 47.2261 51.4636L47.281 51.0992ZM47.3719 51.5683C47.5722 51.5575 47.7729 51.5575 47.9731 51.5683V51.5057C47.8084 51.5057 47.7399 51.4753 47.7399 51.3805C47.7399 51.3525 47.7499 51.2928 47.78 51.2045L47.8787 50.9109H48.461L48.5874 51.2899C48.6051 51.3449 48.6175 51.3875 48.6175 51.418C48.6175 51.4852 48.5643 51.5004 48.4403 51.5051V51.5677C48.5797 51.5624 48.6937 51.5601 48.7769 51.5601C48.8956 51.5601 49.0025 51.5624 49.0959 51.5677V51.4975C48.9464 51.4975 48.9033 51.4525 48.8555 51.3244L48.2832 49.754L48.233 49.7563C48.1926 49.7995 48.1456 49.836 48.0936 49.8645V49.8949C48.0936 50.0125 48.0558 50.1236 48.0098 50.2435L47.6554 51.2296C47.5893 51.4127 47.5391 51.5057 47.3891 51.5057H47.3713V51.5683H47.3719ZM47.9147 50.8079L48.1503 50.0704L48.4185 50.8079H47.9147ZM49.1579 51.5683C49.3126 51.563 49.4821 51.5577 49.6622 51.5577C49.7662 51.5577 50.0296 51.5607 50.4601 51.5653L50.5534 51.1823L50.495 51.17C50.4164 51.4531 50.2723 51.4753 49.9481 51.4753C49.6947 51.4753 49.6339 51.418 49.6339 51.2045V50.1441C49.6339 49.9429 49.6416 49.8856 49.8542 49.878V49.8154C49.759 49.8211 49.6637 49.8236 49.5683 49.823C49.439 49.823 49.3079 49.8206 49.1709 49.8154V49.878C49.3634 49.8885 49.3911 49.9136 49.3911 50.0488V51.2478C49.3911 51.446 49.3888 51.5057 49.1833 51.5057H49.1579V51.5683ZM50.6774 51.5683C50.9045 51.5591 51.1319 51.5591 51.359 51.5683V51.5033H51.3484C51.1434 51.5033 51.1381 51.4384 51.1381 51.2068V50.1441C51.1381 49.9429 51.1458 49.8856 51.359 49.878V49.8154C51.245 49.823 51.1334 49.823 51.0194 49.823C50.8954 49.823 50.7814 49.8206 50.6774 49.8154V49.878C50.87 49.8885 50.8954 49.9136 50.8954 50.0488V51.3051C50.8954 51.4653 50.8652 51.5057 50.6774 51.5057V51.5683ZM51.9998 51.1746V50.7155H52.3317C52.4888 50.7155 52.5496 50.7734 52.5496 50.9284V50.9588H52.6152C52.6043 50.847 52.5984 50.7348 52.5974 50.6225C52.5974 50.5553 52.6028 50.4769 52.6128 50.3892H52.5443C52.5419 50.55 52.4835 50.6026 52.324 50.6026H51.9998V49.8979H52.187C52.539 49.8979 52.6931 49.9335 52.7085 50.2002H52.7616V49.8101C52.5236 49.8154 52.301 49.8207 52.0878 49.8207C51.8651 49.8207 51.6803 49.8183 51.5332 49.813V49.8756C51.7204 49.8832 51.7535 49.9107 51.7535 50.0464V51.3051C51.7535 51.4653 51.7228 51.5057 51.5356 51.5057V51.5683C51.7626 51.559 51.99 51.559 52.2171 51.5683V51.5033H52.2071C52.0098 51.5033 51.9992 51.4425 51.9992 51.2448V51.1746H51.9998ZM53.9475 51.5987C54.2517 51.5987 54.492 51.4753 54.6639 51.2372C54.7802 51.0746 54.8411 50.8886 54.8411 50.6904C54.8411 50.4365 54.7424 50.2113 54.5552 50.033C54.4722 49.9513 54.3732 49.8872 54.2644 49.8446C54.1556 49.8019 54.0391 49.7817 53.9221 49.785C53.6764 49.785 53.4638 49.875 53.2961 50.0482C53.1284 50.2196 53.0355 50.4494 53.0374 50.688C53.0374 50.9442 53.139 51.1823 53.3239 51.3554C53.4945 51.5156 53.7042 51.5987 53.9475 51.5987ZM53.3091 50.6401C53.3091 50.1733 53.5654 49.8727 53.8914 49.8727C54.1147 49.8727 54.3196 50.0061 54.4436 50.2441C54.5245 50.3997 54.5676 50.5751 54.5676 50.7635C54.5676 51.2051 54.3143 51.511 53.9824 51.511C53.7774 51.511 53.6256 51.4232 53.4939 51.2349C53.3724 51.06 53.3079 50.8524 53.3091 50.6401ZM55.5403 50.6377V49.9002C55.5834 49.8949 55.6242 49.8926 55.662 49.8926C55.9585 49.8926 56.1102 50.023 56.1102 50.2733C56.1102 50.502 55.9461 50.6518 55.6567 50.6518C55.6174 50.6527 55.5782 50.648 55.5403 50.6377ZM55.0773 51.5683C55.3044 51.5591 55.5318 51.5591 55.7589 51.5683V51.5033H55.7482C55.5433 51.5033 55.5386 51.4384 55.5386 51.2068V50.7307C55.584 50.736 55.6395 50.7389 55.7057 50.7389H55.7742C56.0299 51.1723 56.2171 51.446 56.3418 51.5659C56.4203 51.5613 56.4935 51.5613 56.5597 51.5613C56.6181 51.5613 56.676 51.5613 56.7422 51.5636V51.501H56.7333C56.5485 51.501 56.3429 51.2179 56.0087 50.691C56.239 50.6032 56.3607 50.4476 56.3607 50.2523C56.3607 49.961 56.1173 49.813 55.6384 49.813C55.5167 49.813 55.3956 49.8207 55.271 49.8207C55.206 49.8203 55.141 49.8185 55.0761 49.8154V49.878C55.2687 49.8885 55.2941 49.9136 55.2941 50.0488V51.3051C55.2941 51.4653 55.2639 51.5057 55.0761 51.5057V51.5683H55.0773ZM56.7918 51.5683C57.0163 51.5577 57.2411 51.5577 57.4656 51.5683V51.5033C57.1822 51.5033 57.1568 51.4027 57.1568 51.0939V50.147L58.4714 51.5969H58.5275V50.2675C58.5275 49.9792 58.5322 49.8891 58.7679 49.8762V49.8136C58.674 49.816 58.5624 49.8189 58.436 49.8189C58.3167 49.8189 58.2127 49.816 58.1271 49.8136V49.8815H58.1525C58.3828 49.8815 58.4183 49.9891 58.4183 50.2926V51.1723L57.1845 49.8189C57.0912 49.8236 57.0197 49.8236 56.9666 49.8236C56.9312 49.8236 56.8573 49.8236 56.751 49.8212V49.8862C56.9743 49.8943 57.0451 49.9639 57.0451 50.1552V51.0922C57.0451 51.3916 57.0451 51.5069 56.7995 51.5069H56.7918V51.5683ZM58.8836 51.5683C59.1105 51.5591 59.3377 51.5591 59.5646 51.5683V51.5033H59.554C59.349 51.5033 59.3443 51.4384 59.3443 51.2068V50.1441C59.3443 49.9429 59.352 49.8856 59.5646 49.878V49.8154C59.4506 49.823 59.339 49.823 59.2256 49.823C59.101 49.823 58.9876 49.8206 58.8836 49.8154V49.878C59.0762 49.8885 59.101 49.9136 59.101 50.0488V51.3051C59.101 51.4653 59.0709 51.5057 58.8836 51.5057V51.5683ZM59.6254 51.5683C59.8255 51.5576 60.026 51.5576 60.226 51.5683V51.5057C60.0619 51.5057 59.9928 51.4753 59.9928 51.3805C59.9928 51.3525 60.0034 51.2928 60.0329 51.2045L60.1321 50.9109H60.7145L60.8414 51.2899C60.8569 51.3311 60.8671 51.3742 60.8715 51.418C60.8715 51.4852 60.8184 51.5004 60.6944 51.5051V51.5677C60.8332 51.5624 60.9477 51.5601 61.031 51.5601C61.1497 51.5601 61.2566 51.5624 61.3499 51.5677V51.4975C61.2005 51.4975 61.1574 51.4525 61.1096 51.3244L60.5367 49.754L60.4865 49.7563C60.4461 49.7995 60.3991 49.836 60.3471 49.8645V49.8949C60.3471 50.0125 60.3093 50.1236 60.2632 50.2435L59.9083 51.2296C59.8427 51.4127 59.792 51.5057 59.6425 51.5057H59.6248V51.5683H59.6254ZM60.1676 50.8079L60.4032 50.0704L60.6713 50.8079H60.1676ZM62.0929 49.8826C62.2978 49.8826 62.3025 49.9476 62.3025 50.1681V50.8881C62.3025 51.3747 62.4897 51.5958 62.9486 51.5958C63.4122 51.5958 63.6172 51.3799 63.6172 50.9132V50.2108C63.6172 49.9751 63.6349 49.8873 63.8121 49.8774V49.8195C63.7258 49.8195 63.6349 49.8218 63.5386 49.8218C63.4376 49.8218 63.3414 49.8195 63.2451 49.8195V49.8803C63.4707 49.8826 63.4831 49.9452 63.4831 50.2213V50.9261C63.4831 51.0594 63.4802 51.1717 63.4323 51.2723C63.3709 51.4057 63.212 51.4981 63.0372 51.4981C62.837 51.4981 62.6805 51.4028 62.6091 51.2443C62.5553 51.1243 62.5429 50.9758 62.5429 50.7828V50.1856C62.5429 49.9546 62.5482 49.8774 62.7354 49.8774H62.7431V49.8195C62.6339 49.8218 62.5258 49.8247 62.4189 49.8247C62.3256 49.8247 62.2163 49.8195 62.0923 49.8195V49.8826H62.0929ZM63.9898 51.4332C63.9896 51.455 63.9938 51.4766 64.0021 51.4968C64.0104 51.517 64.0227 51.5353 64.0383 51.5507C64.0538 51.5661 64.0723 51.5783 64.0927 51.5866C64.1131 51.5948 64.135 51.5989 64.157 51.5987C64.1788 51.5988 64.2004 51.5945 64.2206 51.5862C64.2407 51.5779 64.259 51.5656 64.2743 51.5502C64.2896 51.5348 64.3016 51.5165 64.3097 51.4964C64.3177 51.4763 64.3216 51.4548 64.3212 51.4332C64.3216 51.4117 64.3177 51.3903 64.3097 51.3703C64.3016 51.3503 64.2895 51.3322 64.2742 51.3169C64.2588 51.3017 64.2406 51.2897 64.2204 51.2816C64.2003 51.2735 64.1787 51.2696 64.157 51.27C64.1351 51.2693 64.1132 51.2731 64.0928 51.2811C64.0724 51.289 64.0538 51.301 64.0382 51.3162C64.0226 51.3315 64.0103 51.3497 64.0019 51.3698C63.9936 51.3899 63.9895 51.4114 63.9898 51.4332ZM64.6708 51.5086C64.78 51.5689 64.9088 51.5987 65.0488 51.5987C65.4008 51.5987 65.6358 51.3776 65.6358 51.0764C65.637 51.016 65.626 50.9561 65.6033 50.9C65.5807 50.8439 65.547 50.7929 65.5041 50.75C65.4132 50.66 65.3068 50.6149 65.2076 50.5623C64.995 50.4494 64.8781 50.3587 64.8781 50.1535C64.8781 49.9909 65.0051 49.868 65.1775 49.868C65.3441 49.868 65.4657 49.968 65.4935 50.1365H65.5525L65.5147 49.8201C65.4136 49.7997 65.3108 49.788 65.2076 49.785C64.8781 49.785 64.6708 49.978 64.6708 50.2716C64.6708 50.5096 64.7948 50.6249 65.0358 50.7658C65.2584 50.8962 65.4108 50.9612 65.4108 51.1717C65.4108 51.37 65.2691 51.5028 65.0659 51.5028C64.894 51.5028 64.7493 51.3747 64.6814 51.1366H64.62L64.6708 51.5086ZM65.96 51.4332C65.9598 51.455 65.964 51.4766 65.9723 51.4968C65.9806 51.517 65.9929 51.5353 66.0085 51.5507C66.024 51.5661 66.0425 51.5783 66.0629 51.5866C66.0833 51.5948 66.1052 51.5989 66.1272 51.5987C66.1491 51.5989 66.1707 51.5947 66.191 51.5864C66.2112 51.5781 66.2295 51.5659 66.2449 51.5504C66.2603 51.535 66.2723 51.5167 66.2804 51.4965C66.2885 51.4764 66.2924 51.4548 66.2919 51.4332C66.2924 51.4116 66.2885 51.3902 66.2804 51.3702C66.2723 51.3501 66.2602 51.332 66.2448 51.3167C66.2294 51.3015 66.211 51.2895 66.1908 51.2814C66.1706 51.2734 66.1489 51.2695 66.1272 51.27C66.1053 51.2694 66.0835 51.2733 66.0631 51.2812C66.0427 51.2892 66.0242 51.3012 66.0086 51.3164C65.993 51.3316 65.9807 51.3498 65.9723 51.3699C65.964 51.3899 65.9598 51.4115 65.96 51.4332ZM66.4768 51.5683C66.6769 51.5575 66.8774 51.5575 67.0774 51.5683V51.5057C66.9132 51.5057 66.8441 51.4753 66.8441 51.3805C66.8441 51.3525 66.8548 51.2928 66.8843 51.2045L66.9835 50.9109H67.5658L67.6922 51.2899C67.7099 51.3449 67.7229 51.3875 67.7229 51.418C67.7229 51.4852 67.6698 51.5004 67.5458 51.5051V51.5677C67.6846 51.5624 67.7991 51.5601 67.8824 51.5601C68.0011 51.5601 68.1074 51.5624 68.2013 51.5677V51.4975C68.0519 51.4975 68.0088 51.4525 67.9609 51.3244L67.3881 49.754L67.3379 49.7563C67.2975 49.7995 67.2504 49.836 67.1985 49.8645V49.8949C67.1985 50.0125 67.1607 50.1236 67.1146 50.2435L66.7597 51.2296C66.6941 51.4127 66.6433 51.5057 66.4933 51.5057H66.4762V51.5683H66.4768ZM67.019 50.8079L67.2546 50.0704L67.5227 50.8079H67.019ZM75.2027 31.9046C75.3291 31.9046 75.4525 31.9367 75.573 32.0005C75.6929 32.0648 75.7868 32.1572 75.8541 32.2765C75.9214 32.3959 75.9551 32.5204 75.9551 32.6509C75.9551 32.7795 75.922 32.903 75.8559 33.0211C75.7897 33.1398 75.6964 33.2317 75.5777 33.2972C75.4578 33.3627 75.3332 33.396 75.2027 33.396C75.0722 33.396 74.947 33.3627 74.8283 33.2972C74.7104 33.2335 74.6134 33.1377 74.5489 33.0211C74.484 32.9083 74.4496 32.7807 74.4491 32.6509C74.4491 32.5204 74.4834 32.3959 74.5507 32.2765C74.6174 32.1572 74.7113 32.0654 74.8324 32.0005C74.9529 31.9367 75.0763 31.9046 75.2027 31.9046ZM75.2027 32.028C75.0964 32.028 74.9936 32.0549 74.8938 32.1087C74.794 32.1625 74.7155 32.2397 74.6594 32.3391C74.6033 32.4386 74.5743 32.5427 74.5743 32.6509C74.5743 32.7585 74.6027 32.8608 74.6582 32.9591C74.7137 33.0574 74.7917 33.1346 74.8915 33.1895C74.9913 33.2445 75.0952 33.2726 75.2033 33.2726C75.3114 33.2726 75.4153 33.2445 75.5151 33.1895C75.6149 33.1346 75.6923 33.0574 75.7478 32.9591C75.8023 32.8647 75.8308 32.7577 75.8306 32.649C75.8304 32.5402 75.8015 32.4334 75.7466 32.3391C75.6899 32.2397 75.6114 32.1625 75.5116 32.1087C75.4118 32.0549 75.3078 32.028 75.2027 32.028ZM74.8732 33.0615V32.2602H75.1513C75.2464 32.2602 75.3149 32.2672 75.358 32.2818C75.4011 32.2964 75.4342 32.3222 75.4596 32.3596C75.485 32.397 75.4974 32.4356 75.4974 32.4772C75.4974 32.5362 75.4761 32.5871 75.4342 32.6304C75.3923 32.6737 75.3362 32.6982 75.2665 32.7035C75.2918 32.7134 75.315 32.7279 75.335 32.7462C75.3681 32.7778 75.4076 32.831 75.4549 32.9047L75.5535 33.0615H75.3935L75.3214 32.9351C75.2653 32.8357 75.2198 32.7737 75.1856 32.7491C75.1546 32.7285 75.1177 32.7187 75.0805 32.7211H75.0037V33.0615H74.8732ZM75.0031 32.6111H75.162C75.2375 32.6111 75.2895 32.5994 75.3173 32.5772C75.3307 32.5666 75.3414 32.553 75.3485 32.5376C75.3557 32.5221 75.3592 32.5053 75.3586 32.4883C75.3588 32.4655 75.3518 32.4432 75.3385 32.4245C75.3248 32.4056 75.3057 32.3912 75.2836 32.383C75.2408 32.3713 75.1963 32.3667 75.1519 32.3695H75.0031V32.6111Z" fill="#130F49"/>
</svg>
