<svg width="90" height="21" viewBox="0 0 90 21" fill="none" xmlns="http://www.w3.org/2000/svg">
<path d="M0 20.6908H4.17764V11.4699C4.75864 10.7108 5.7823 10.1767 6.86129 10.1767C8.49362 10.1767 9.21295 11.498 9.21295 13.4096V20.6908H13.3906V12.6787C13.3906 8.88353 11.3709 6.3253 7.77429 6.3253C6.30796 6.3253 5.0353 6.83133 4.17764 7.64659V6.63454H0V20.6908Z" fill="#130F49"/>
<path d="M28.4567 6.63454H24.2791V15.8554C23.6428 16.6707 22.7021 17.1486 21.9551 17.1486C20.2121 17.1486 19.5481 15.8273 19.5481 13.9157V6.63454H15.3705V14.6466C15.3705 18.4418 17.3901 21 21.0698 21C22.1488 21 23.4214 20.5502 24.2791 19.7349V20.6908H28.4567V6.63454Z" fill="#130F49"/>
<path d="M38.4117 20.8594C39.8227 20.8594 41.5103 20.3815 42.1467 20.0161L40.9017 16.5582C40.4867 16.7831 39.712 17.008 39.0204 17.008C37.6094 17.008 36.9454 16.3614 36.9454 14.6747V10.3173H41.0953V6.63454H36.9454V2.36145H32.7677V6.63454H29.4478V10.3173H32.7677V15.5462C32.7677 19.1446 35.0917 20.8594 38.4117 20.8594Z" fill="#130F49"/>
<path d="M42.8809 20.6908H47.0586V11.8072C47.7502 10.8233 49.0505 10.5422 50.0189 10.5422C50.5999 10.5422 51.0702 10.6265 51.1809 10.7108L51.8172 6.74699C51.5129 6.63454 50.8765 6.46586 50.1295 6.46586C48.7186 6.46586 47.5012 7.2249 47.0586 8.20884V6.63454H42.8809V20.6908Z" fill="#130F49"/>
<path d="M54.7375 5.28514C56.2039 5.28514 57.3658 4.10442 57.3658 2.64257C57.3658 1.18072 56.2039 0 54.7375 0C53.3265 0 52.1369 1.18072 52.1369 2.64257C52.1369 4.10442 53.3265 5.28514 54.7375 5.28514ZM52.6625 20.6908H56.8402V6.63454H52.6625V20.6908Z" fill="#130F49"/>
<path d="M74.1979 5.28514C75.6642 5.28514 76.8262 4.10442 76.8262 2.64257C76.8262 1.18072 75.6642 0 74.1979 0C72.7869 0 71.5972 1.18072 71.5972 2.64257C71.5972 4.10442 72.7869 5.28514 74.1979 5.28514ZM72.1229 20.6908H76.3005V6.63454H72.1229V20.6908ZM61.2223 20.6908H65.3999V10.3173H70.0202V6.63454H65.3999V5.84739C65.3999 4.63855 66.1746 3.82329 67.3919 3.82329C68.1389 3.82329 68.6093 4.07631 69.0242 4.30121L70.5459 0.843374C69.7989 0.477912 68.6093 0 66.8386 0C63.0206 0 61.2223 2.78313 61.2223 5.84739V6.63454H57.9023V10.3173H61.2223V20.6908Z" fill="#130F49"/>
<path d="M86.265 20.8594C87.676 20.8594 89.3637 20.3815 90 20.0161L88.755 16.5582C88.34 16.7831 87.5653 17.008 86.8737 17.008C85.4627 17.008 84.7987 16.3614 84.7987 14.6747V10.3173H88.9487V6.63454H84.7987V2.36145H80.6211V6.63454H77.3011V10.3173H80.6211V15.5462C80.6211 19.1446 82.945 20.8594 86.265 20.8594Z" fill="#130F49"/>
</svg>
